<svg xmlns="http://www.w3.org/2000/svg" baseProfile="tiny" width="369.091" height="119.394" xmlns:v="https://vecta.io/nano"><style><![CDATA[.B{fill-rule:evenodd}]]></style><path d="M54.938 42.323c-.293-.721.151-1.69.151-1.69.528-.165 1.515-.062 1.812.625.32.744 0 1.384-.854 1.896 0-.001-.54-.192-1.109-.831zm25.297 43.174l-5.224 4.162-.028-42.963h5.252zm3.366-3.747l.014-35.054h4.26l.042 26.746c-.822 2.53-2.164 5.288-4.316 8.308zm-17.179 4.142l5.295 4.165V46.696h-5.295zm-2.963-2.929l-.031-36.268h-4.699v28.548c.179 1.926 3.622 6.808 4.73 7.72z" class="B"/><path d="M73.101 95.567c-19.781 0-35.872-16.092-35.872-35.871S53.32 23.827 73.101 23.827s35.869 16.091 35.869 35.869-16.091 35.871-35.869 35.871v1.27c20.479 0 37.139-16.661 37.139-37.141S93.58 22.557 73.101 22.557s-37.142 16.66-37.142 37.139 16.66 37.141 37.142 37.141v-1.27zm0 14.086c-27.55 0-49.962-22.411-49.962-49.957S45.551 9.741 73.101 9.741s49.958 22.409 49.958 49.955-22.411 49.957-49.958 49.957v1.644c28.453 0 51.602-23.148 51.602-51.601S101.554 8.097 73.101 8.097 21.497 31.243 21.497 59.696s23.148 51.601 51.604 51.601v-1.644z"/><g class="B"><path d="M30.561 74.323c1.126 1.101 1.697 1.859 2.314 3.307.551 1.291.668 2.121.744 3.523l2.554-1.132c-.944-1.047-1.473-1.692-2.044-2.982-.632-1.431-.861-2.332-.962-3.89l-2.606 1.174z"/><path d="M30.396 79.975c1.089-1.135 1.854-1.712 3.307-2.314 1.296-.54 2.121-.656 3.522-.744l-1.129-2.554c-1.043.949-1.7 1.464-2.984 2.042-1.425.642-2.332.85-3.891.963l1.175 2.607zm85.138-5.652c-1.123 1.104-1.701 1.859-2.314 3.307-.553 1.294-.672 2.121-.745 3.523l-2.554-1.132c.933-1.055 1.481-1.689 2.042-2.982.625-1.434.864-2.332.964-3.89l2.607 1.174z"/><path d="M115.698 79.975c-1.094-1.132-1.851-1.715-3.307-2.314-1.299-.534-2.121-.662-3.522-.744l1.129-2.554c1.04.952 1.7 1.459 2.985 2.042 1.422.647 2.331.847 3.89.963l-1.175 2.607zM52.965 95.459c.671-.367.998-.034 1.166-.25.125-.159-.02-.228-.208-.373-.25-.196-.525-.353-.776-.546l-.733-.634c-.104-.082-.341-.312-.48-.137-.256.33.91.683.225 1.563-.116.148-.39.461-1.146.879l-3.435 1.891c-.08.046-.216.148-.271.108s.003-.208.028-.295l1.197-3.91c.225-.745.452-1.274.671-1.556.308-.393.73.165.927-.088.125-.156.074-.185-.21-.406-.143-.108-.43-.273-.998-.717l-.867-.739c-.134-.102-.35-.392-.526-.171-.051.069.021.214.04.245.29.375.336.577.202 1.058l-2.042 7.167c-.145.519-.131.681-.039.751.097.077.185.055.472-.11l6.803-3.73zm8.931 3.697c.219-.876.89-.256.998-.694.034-.136-.017-.164-.247-.221-.174-.043-.318-.029-1.246-.263l-1.476-.415c-.23-.057-.372.003-.4.108-.1.403 1.214.398.97 1.376l-1.356 5.445c-.35 1.404-1.026.574-1.16 1.106-.017.067.034.142.177.179l1.412.301 2.852.763c.896.222 1.777-.561 2.002-1.459.055-.219-.014-.273-.057-.284-.415-.103-.64 1.441-3.35.768-.787-.196-.642-.601-.463-1.313l1.344-5.397zm6.533 1.385c.058-.818.103-.825 1.462-.73 2.17.15 1.197 1.476 1.723 1.51.26.02.231-.376.231-.529l.037-1.174c.008-.108-.063-.23-.208-.242l-2.568-.131-2.985-.259c-.159-.009-.256.08-.261.185-.035.476 1.262.186 1.188 1.249l-.387 5.538c-.103 1.441-.91.745-.95 1.288-.006.071.06.137.205.145l1.441.055 2.943.253c.921.065 1.652-.858 1.717-1.783.016-.225-.062-.264-.104-.267-.431-.031-.379 1.529-3.168 1.336-.808-.057-.733-.48-.683-1.214l.105-1.516c.048-.685.014-.83.531-.796l.83.06c1.169.082.768 1.313 1.126 1.339.271.021.233-.412.233-.565l.068-2.113c.012-.317-.114-.304-.193-.31-.225-.017-.336 1.072-1.303 1.004l-.707-.051c-.484-.034-.479-.116-.441-.626l.118-1.656zm6.011 5.694c.105 1.203-.992 1.086-.949 1.559.017.202.235.122.361.11.301-.025.6-.099.961-.131l1.327-.067c.146-.012.427-.025.412-.19-.048-.555-1.415.372-1.611-1.896l-.354-4.018c-.009-.105.006-.191.074-.196.055-.006.128.048.214.136l5.939 5.673c.085.088.147.153.304.14.136-.012.128-.108.105-.367l-.58-6.628c-.108-1.242.87-1.04.839-1.396-.003-.034-.014-.153-.229-.137-.099.012-.488.091-1.195.153l-1.283.065c-.147.015-.171.134-.162.217.034.389 1.385.057 1.479 1.131l.344 3.936c.025.295.018.44-.051.446s-.217-.125-.375-.276l-4.968-4.816c-.222-.207-.094-.301-.455-.27l-1.174.15c-.214.018-.418-.011-.632.009-.137.011-.185.11-.174.216.049.565 1.24-.312 1.438 1.959l.395 4.488zm13.937-9.087c-.02-.057-.097-.045-.15-.028-.15.046-.049.424-.253.486-.321.1-1.365-.341-2.667.061-2.716.829-3.06 3.676-2.477 5.58.272.896 1.646 3.651 4.802 2.685 2.298-.699 2.915-2.764 2.774-3.216-.02-.068-.133-.094-.188-.08-.281.088-.56 1.798-2.229 2.307-2.059.631-3.607-1.354-4.098-2.952-.463-1.518-.076-3.374 1.508-3.857 1.251-.381 2.502.312 3.371 1.239.123.122.271.339.441.287.185-.057.062-.304.018-.415l-.852-2.097zm3.248-.71c-.528-.995.418-1.019.228-1.374-.068-.125-.128-.119-.427.04l-1.259.726-1.149.554c-.088.049-.355.147-.259.327.193.366 1.164-.523 1.669.429l2.673 5.027c.529.995-.332 1.103-.137 1.47.029.052.086.114.177.066l1.092-.635 1.535-.762c.228-.122.296-.211.233-.327-.176-.335-1.035.739-1.721-.546l-2.655-4.995zm-64.499-41.56c-.674-.324-.574-.708-.848-.735-.202-.021-.179.115-.198.314-.026.267-.006.537-.032.802-.028.275-.103.536-.13.81-.012.114-.075.388.15.41.415.04.07-.961 1.186-.851.189.021.603.08 1.37.443l3.472 1.661c.082.037.244.091.238.147s-.176.088-.264.108l-3.938.85c-.747.165-1.315.233-1.675.198-.494-.05-.261-.602-.58-.633-.201-.021-.195.028-.227.331-.015.152.006.431-.055 1.039l-.145.953c-.015.142-.137.426.147.454.083.009.165-.107.179-.135.16-.377.303-.496.782-.612l7.134-1.671c.515-.121.643-.203.651-.299.011-.104-.054-.157-.353-.294l-6.864-3.29z"/><path d="M32.767 54.12c1.177.271.765 1.111 1.229 1.217.196.045.179-.152.204-.254.058-.25.068-.51.137-.808l.299-1.078c.028-.121.091-.349-.068-.386-.546-.126-.031 1.238-2.252.727l-3.93-.908c-.102-.023-.179-.061-.168-.117.012-.045.083-.088.191-.13l7.034-3.06c.108-.044.188-.074.219-.203.025-.111-.068-.133-.321-.192l-6.482-1.496c-1.215-.281-.757-1.001-1.104-1.083-.034-.007-.15-.034-.19.143-.021.082-.048.418-.182.999l-.29 1.044c-.026.12.082.175.162.193.381.088.435-1.088 1.486-.846l3.848.89c.29.065.424.116.412.172s-.18.135-.367.218L26.677 51.7c-.257.116-.313-.013-.382.282l-.176.981c-.043.175-.125.331-.168.508-.025.11.058.179.162.201.555.128.043-1.08 2.261-.568l4.393 1.016zm-3.057-9.966c-1.069-.349-.443-.894-.827-1.019-.137-.044-.174-.005-.262.265l-.333 1.179-.375 1.005c-.028.081-.134.296.058.358.395.128.408-.995 1.438-.66l5.414 1.759c1.072.349.566.903.961 1.03.057.019.143.026.168-.055l.284-1.025.492-1.356c.065-.207.046-.304-.077-.344-.361-.118-.17 1.061-1.558.611l-5.383-1.748z"/><path d="M32.38 37.41c-.534-.518-.321-.851-.571-.961-.186-.083-.205.054-.287.235-.108.243-.174.505-.281.748-.111.252-.262.475-.376.727-.046.104-.19.34.018.432.378.17.366-.886 1.385-.431.173.077.546.262 1.157.846l2.764 2.654c.064.06.201.162.176.214s-.193.028-.278.02l-3.992-.427c-.757-.076-1.316-.19-1.644-.335-.455-.202-.06-.651-.353-.78-.185-.083-.193-.035-.315.243-.062.139-.131.409-.378.963-.131.296-.308.572-.433.856-.06.131-.264.361-.006.478.077.032.193-.051.214-.071.267-.307.44-.375.93-.336l7.267.65c.523.047.672.007.711-.078.04-.097-.006-.168-.244-.39L32.38 37.41zm1.996-2.461c-.688-.445-.677-.485-.051-1.447.997-1.535 1.757-.159 2.001-.533.117-.184-.235-.356-.369-.433l-1.007-.608c-.088-.057-.225-.066-.293.037l-1.138 1.84-1.415 2.092c-.071.111-.034.226.057.285.397.259.662-.848 1.558-.268l4.658 3.024c1.211.789.281 1.045.738 1.34.061.04.143.023.208-.079l.623-1.044 1.393-2.06c.424-.652-.085-1.652-.864-2.156-.188-.122-.253-.086-.272-.055-.199.303 1.177 1.038-.103 3.011-.373.573-.711.309-1.328-.09l-1.273-.828c-.578-.375-.717-.421-.479-.787l.381-.589c.538-.827 1.448.08 1.613-.174.125-.191-.265-.376-.398-.452l-1.809-1.095c-.272-.166-.31-.064-.347-.011-.103.159.796.779.353 1.463l-.324.502c-.225.341-.293.296-.722.018l-1.391-.903zm11.82-4.563c.219.188.272.267.5.168.521-.236 1.075-.328 1.519-.701.952-.799.944-2.167-.057-3.359-.967-1.152-1.774-1.141-2.911-.915-1.425.281-1.922.498-2.435-.11s-.472-1.229.006-1.631c1.251-1.05 2.778.55 2.946.409.158-.135.09-.262-.092-.449l-1.104-1.149c-.189-.198-.281-.354-.392-.261-.094.078-.153.377-.247.456-.22.183-.822.086-1.416.585-.851.713-.794 1.966.085 3.009.799.956 1.526.95 2.442.771 1.711-.338 2.266-.603 2.914.168.611.728.541 1.529-.025 2.006-.808.677-1.951.229-2.918-.449-.127-.094-.21-.163-.326-.065-.182.152.111.354.241.464l1.27 1.053zm1.24-8.978c-.646-.924.182-.981-.049-1.312-.083-.116-.134-.109-.367.056l-.975.739-.907.577c-.068.049-.284.156-.168.321.235.34.924-.547 1.544.337l3.267 4.664c.646.922-.091 1.061.147 1.402.035.048.098.104.168.057l.842-.648 1.209-.789c.179-.125.221-.213.147-.319-.219-.311-.776.745-1.612-.449l-3.246-4.636zm32.994-7.182c.094-.526.285-.734.706-.66 1.447.256 1.23 1.977 1.168 2.277s-.378 1.606-1.51 1.407c-.204-.035-.353-.133-.427-.146-.113-.02-.156.117-.17.198-.009.048-.015.349.901.509 1.111.196 2.138-.537 2.396-1.999.302-1.704-.757-2.493-1.956-2.681l-1.467-.211-1.279-.272c-.225-.04-.291.105-.302.175-.077.434.98.125.762 1.363l-.907 5.139c-.256 1.46-.958 1.072-1.018 1.41-.037.198.137.205.165.209.054.012.782.091 1.157.157l1.263.271c.131.022.219.062.255-.136.072-.409-.949-.132-.693-1.592l.956-5.418zm7.879.518c-2.152-.717-3.98.724-4.828 3.18-.781 2.276-.094 4.206 1.709 4.829 2.863.983 4.356-1.575 4.896-3.145.819-2.377-.019-4.285-1.777-4.864zm.524 4.921c-.64 1.862-1.661 3.193-3.216 2.694-1.615-.52-1.376-3.059-.811-4.695.561-1.627 1.541-3.021 3.068-2.531 1.166.375 1.814 2.054.959 4.532zm4.722-1.485c.406-.802.808-.104 1.012-.507.065-.127.029-.158-.147-.249-.137-.069-.259-.079-.978-.445l-1.13-.628c-.176-.09-.312-.053-.36.041-.188.371.912.571.455 1.47l-2.548 4.999c-.657 1.29-1.01.393-1.257.878-.031.062-.009.143.103.198l1.104.509 2.194 1.171c.691.354 1.633-.26 2.053-1.083.103-.2.057-.263.025-.279-.321-.164-.909 1.28-3.005.213-.608-.311-.381-.674-.048-1.329l2.527-4.959zm5.123 3.205c.631-.935.98-.183 1.209-.518.079-.117.054-.164-.185-.322l-1.042-.646-.86-.639c-.071-.049-.247-.211-.361-.043-.23.344.845.668.239 1.563l-3.182 4.72c-.631.933-1.027.296-1.257.641-.034.048-.065.128.005.176l.908.555 1.171.847c.179.123.278.13.35.023.213-.315-.973-.458-.156-1.668l3.161-4.689zm-.355 6.635c-.869 1.113-1.361.004-1.648.367-.159.205-.025.296.107.401l1.078.78 1.018.854c.217.171.344.315.518.091.205-.261-.964-.739-.065-1.888l3.302-4.225c.349-.449.463-.438.767-.198l.638.496c.889.635-.162 1.486.136 1.721.196.15.398-.278.473-.401l.588-.924c.065-.1.168-.23.058-.318l-2.317-1.751-2.261-1.824c-.111-.088-.213.044-.293.131l-1.086 1.14c-.108.109-.312.28-.156.402.336.265 1.068-1.136 1.914-.475l.627.489c.305.24.345.346-.005.793l-3.393 4.339zm8.169.106c.6-.558.634-.538 1.416.301 1.251 1.34-.271 1.744.034 2.07.148.16.403-.143.509-.253l.833-.829c.08-.072.119-.203.034-.293l-1.51-1.55-1.687-1.878c-.091-.097-.21-.088-.289-.015-.348.323.662.849-.12 1.576l-4.06 3.787c-1.059.986-1.081.021-1.479.394-.052.049-.057.131.028.221l.861.855 1.66 1.852c.532.568 1.624.315 2.3-.316.166-.153.146-.228.12-.254-.245-.264-1.291.894-2.895-.829-.466-.497-.13-.762.409-1.264l1.109-1.035c.503-.469.583-.594.879-.274l.48.514c.671.721-.43 1.384-.223 1.606.156.166.43-.167.535-.277l1.501-1.49c.228-.225.136-.284.094-.334-.131-.138-.946.584-1.504-.011l-.409-.438c-.279-.297-.217-.354.156-.702l1.218-1.134zm7.026 7.359c.047-.032.02-.094-.006-.134-.074-.111-.404.101-.507-.049-.159-.235.034-1.245-.608-2.197-1.336-1.982-4.057-1.328-5.709-.214-.776.525-3.057 2.576-1.501 4.882 1.131 1.675 3.179 1.507 3.571 1.243.059-.04.059-.146.033-.184-.139-.205-1.788.129-2.609-1.091-1.013-1.502.508-3.444 1.896-4.38 1.316-.889 3.124-1.18 3.903-.024.617.913.228 2.183-.452 3.213-.091.141-.258.336-.174.461.089.134.293-.05.387-.125l1.776-1.401zm-4.752 4.682c-1.098.512-1.288-.404-1.717-.203-.182.085-.049.231-.006.327.107.231.258.444.387.719l.432 1.035c.052.112.143.331.291.262.506-.235-.737-.997 1.324-1.958l3.656-1.704c.097-.046.18-.064.205-.012.02.043-.012.119-.068.221l-3.662 6.742c-.057.102-.103.172-.046.294.049.104.134.063.37-.048l6.033-2.812c1.126-.526 1.211.324 1.532.175.031-.017.14-.065.065-.229-.037-.076-.222-.358-.472-.899l-.415-1.001c-.055-.112-.174-.087-.248-.053-.355.167.327 1.126-.65 1.581l-3.58 1.669c-.268.125-.406.169-.429.116s.057-.215.156-.396l3.128-5.668c.13-.25.255-.182.127-.456l-.466-.883c-.074-.163-.105-.339-.179-.502-.049-.104-.157-.106-.254-.062-.514.242.635.879-1.43 1.84l-4.084 1.905zm8.471 6.258c1.071-.349.884.46 1.268.336.137-.045.145-.097.057-.367l-.424-1.148-.287-1.035c-.025-.083-.065-.318-.256-.256-.395.128.25 1.046-.775 1.379l-5.414 1.76c-1.072.347-.989-.397-1.385-.27-.057.02-.128.062-.103.145l.372.995.401 1.387c.068.207.14.273.265.234.358-.118-.486-.96.898-1.41l5.383-1.75zm2.533 7.05c.059-.01.059-.078.051-.124-.022-.131-.409-.074-.443-.25-.049-.281.537-1.126.338-2.258-.415-2.354-3.167-2.86-5.129-2.515-.922.162-3.838 1.11-3.355 3.849.35 1.99 2.289 2.67 2.756 2.587.07-.013.113-.106.104-.153-.042-.243-1.683-.608-1.938-2.058-.316-1.783 1.865-2.939 3.512-3.23 1.566-.276 3.334.192 3.576 1.566.193 1.085-.68 2.086-1.718 2.751-.142.092-.374.2-.347.351.025.158.29.074.404.043l2.189-.559zM51.876 83.362c-.304.23-.321.216-.683-.265-.58-.768.171-.848.031-1.035-.068-.091-.199.04-.256.086l-.424.347c-.039.028-.062.091-.025.142l.702.894.779 1.071c.042.057.103.06.143.031.177-.134-.305-.478.094-.776l2.069-1.558c.538-.406.526.076.731-.077.025-.022.03-.062-.009-.113l-.4-.495-.769-1.058c-.247-.324-.784-.287-1.132-.028-.082.065-.074.103-.062.119.114.151.651-.341 1.394.646.216.287.046.39-.228.598l-.565.426c-.259.193-.299.248-.436.065l-.222-.295c-.312-.413.239-.654.143-.782-.071-.094-.211.048-.268.097l-.766.619c-.115.095-.073.131-.053.159.059.08.475-.213.733.129l.188.25c.131.17.1.193-.091.338l-.618.465zm.951-3.404c.363-.006.517.228.619.15.062-.049.006-.097-.06-.179-.094-.128-.208-.245-.307-.376-.086-.11-.151-.235-.299-.429-.058-.077-.094-.091-.131-.065-.153.119.235.387 0 .562-.062.046-.21.085-.409.097l-.726.034-.272.006c-.012-.018.028-.108.076-.239l.299-.79c.049-.131.088-.216.18-.284.167-.128.272.137.403.037.071-.055.017-.105-.025-.162l-.361-.443c-.147-.188-.199-.302-.268-.393-.122-.162-.165-.199-.222-.156-.097.073.094.247-.125.81l-.512 1.337c-.057.147-.074.23-.143.278-.048.037-.179.028-.315.034l-1.029.031c-.64.022-.753-.293-.855-.216-.049.037-.054.074-.003.142l.344.421.293.427c.014.015.051.085.131.025.108-.079-.173-.341.02-.489.08-.06.168-.082.443-.091l.712-.022c.067-.003.153-.018.176.012s-.006.085-.025.13l-.398.894c-.031.065-.073.137-.11.164-.16.12-.313-.122-.421-.039-.023.017-.057.037.009.125.082.108.17.188.397.491l.381.544c.055.07.089.076.131.045.165-.125-.19-.188.188-1.104l.4-.969c.043-.108.105-.273.145-.305.031-.022.151-.02.265-.022l1.404-.023z"/><circle cx="67.838" cy="30.32" r="1.12"/><circle cx="57.759" cy="32.56" r="1.12"/></g><path d="M90.967 35.68c-.271.643-.559.74-1.622.553-.887-.156-.865-1.321-.815-1.814l-1.492-.434c-.642 1.277-1.4 1.348-1.989 1.267-1.073-.147-1.128-1.927-1.064-2.974l-1.535-.311c-.744 2.104-1.079 2.429-2.016 2.601-.521.096-.919-.239-1.11-.447a2.18 2.18 0 0 1-.551-1.298 5.15 5.15 0 0 0 .074-.694l-1.552-.241a3.17 3.17 0 0 0-.108.814c-.135.614-.423 1.146-.788 1.416-.252.187-.515.234-.825.152-.745-.197-1.735-.801-1.735-3.753h-1.582l.005.265h-.005c0 2.123-.519 3.167-1.733 3.488-.31.082-.596.014-.873-.207-.383-.305-.674-.854-.778-1.422.003-.232-.015-.462-.056-.686l-1.567.116c-.008.22.006.442.036.663-.037.546-.271 1.116-.637 1.48-.299.299-.631.418-.985.353-.95-.174-1.419-.604-2.151-2.668l-1.533.312c.065 1.093.027 2.948-.967 3.084-.555.077-1.218-.042-1.953-1.509l-1.493.434c.102 1.005-.289 1.972-.854 2.112-1.005.252-1.005.252-1.471-.553l-.135-.23-1.362.802.129.222c.722 1.247 1.275 1.781 3.221 1.294.871-.217 1.458-.883 1.778-1.708.681.589 1.467.826 2.355.703.781-.107 1.643-.562 2.073-1.905.514.61 1.161.998 2.076 1.166.87.16 1.719-.119 2.39-.789a3.51 3.51 0 0 0 .419-.51 3.22 3.22 0 0 0 .48.476c.667.531 1.471.709 2.262.499 1.05-.278 1.721-.872 2.149-1.565a3.37 3.37 0 0 0 2.092 1.565 2.48 2.48 0 0 0 2.171-.409c.199-.148.384-.329.55-.533.083.115.173.227.27.333.701.765 1.635 1.104 2.562.934s1.532-.545 1.998-1.108c.498 1.333 1.449 1.712 2.115 1.804.697.096 1.566.026 2.369-.565.341.824.988 1.383 1.869 1.537.823.146 2.537.447 3.354-1.497l-1.46-.615z"/><g class="B"><circle cx="78.122" cy="30.385" r="1.12"/><circle cx="88.334" cy="32.428" r="1.12"/><path d="M57.782 41.219l1.188-1.142 1.462.551-1.123 1.134z"/></g><path d="M55.152 40.322c6.766-2.161 10.796-2.784 17.968-2.776 7.24.005 11.281.628 18.02 2.776 0 0 .559.147.771-.518s-.318-.906-.318-.906c-6.826-2.176-11.142-2.841-18.471-2.847-7.265-.008-11.569.658-18.425 2.848 0 0-.54.231-.328.896s.783.527.783.527zm1.441 4.369l1.908-.426c3.353-.77 7.524-1.728 14.546-1.733 5.812-.005 9.754.788 14.746 1.792l1.847.369s.567.084.7-.59-.41-.875-.41-.875l-1.842-.369c-5.074-1.02-9.081-1.826-15.043-1.82-7.189.006-11.453.984-14.879 1.771l-1.88.419s-.545.209-.405.874.712.588.712.588z"/><g class="B"><path d="M66.906 39.489l1.327-.964 1.478.778-1.358.949zm24.249 2.766c.293-.721-.15-1.69-.15-1.69-.529-.164-1.559-.076-1.813.627-.276.763 0 1.384.855 1.895-.001-.001.539-.19 1.108-.832zm-2.778-1.036l-1.188-1.142-1.462.551 1.123 1.134zm-9.189-1.73l-1.328-.964-1.481.778 1.362.949zm5.547.829c.125-.79-.75-1.376-1.936-1.563s-2.235.094-2.36.884.714 1.365 1.899 1.554 2.272-.085 2.397-.875zm14.751 3.928c.225-.135.367-.128.48.062.396.658-.312 1.135-.446 1.209s-.722.376-1.029-.137c-.057-.094-.068-.184-.091-.218-.028-.051-.094-.022-.131-.003-.017.013-.131.108.119.524.302.505.919.67 1.547.295.729-.441.665-1.116.327-1.652l-.415-.649-.333-.598c-.06-.101-.137-.077-.164-.061-.188.111.283.43-.248.748l-2.203 1.323c-.626.377-.72-.03-.864.059-.086.051-.028.12-.021.133.015.026.23.34.333.51l.324.588c.036.06.051.108.137.058.176-.105-.271-.418.355-.795l2.323-1.396zm4.691 12.375c.094-.014.222-.03.21-.104-.011-.079-.173-.065-.188-.174-.02-.131.299-.596.202-1.276-.174-1.234-1.521-1.559-2.493-1.422-.458.064-1.905.492-1.706 1.928.076.533.418 1.039.784 1.461.034.04.066.042.156.029l.479-.083c.742-.104.478.279.725.243.057-.009.077-.041.074-.065l-.097-.524-.074-.689c-.012-.084.012-.246-.156-.224-.22.031.256.559-.646.686-.336.047-.824.101-.946-.78-.114-.794.893-1.284 1.683-1.395 1.465-.206 1.908.39 1.974.846.179 1.286-1.081 1.466-1.067 1.572.016.093.046.118.123.108l.963-.137zm-.466 5.516c.4.041.403.062.34.656-.099.95-.738.495-.761.726-.011.113.182.107.259.11l.577.043c.051.006.114-.023.119-.088l.097-1.123.159-1.306c.006-.069-.034-.113-.089-.119-.229-.024-.104.552-.628.496l-2.718-.285c-.708-.074-.355-.416-.623-.444-.033-.003-.064.022-.074.087l-.042.633-.159 1.285c-.04.403.403.744.858.79.108.012.131-.02.134-.039.02-.188-.75-.2-.623-1.418.04-.354.245-.312.605-.274l.742.077c.339.037.41.023.387.25l-.039.364c-.052.512-.654.31-.672.466-.011.119.199.111.276.113l1.038.074c.159.012.152-.045.156-.079.008-.097-.523-.168-.48-.592l.034-.31c.022-.211.062-.207.312-.18l.815.087zm-3.306 1.703c-.143-.003-.188-.018-.245.099-.131.265-.315.486-.372.782-.125.637.299 1.18 1.052 1.328.728.142 1.034-.131 1.404-.598.467-.585.592-.838.979-.762s.557.336.495.654c-.163.836-1.243.699-1.263.812-.022.105.046.134.173.148l.776.097c.136.017.219.048.233-.025.012-.062-.057-.202-.046-.265.028-.147.293-.308.37-.705.11-.568-.296-1.049-.955-1.177-.604-.117-.882.125-1.181.5-.56.702-.693.995-1.18.898-.458-.088-.677-.433-.603-.813.102-.537.683-.736 1.266-.784.076-.006.13-.006.145-.083.025-.122-.151-.104-.233-.104l-.815-.002z"/><path d="M99.864 66.339c-.142-.022-.185-.04-.256.065-.162.25-.372.446-.466.733-.199.617.153 1.208.882 1.447.704.228 1.046-.006 1.469-.424.532-.523.688-.759 1.062-.637s.515.401.415.711c-.265.811-1.319.543-1.356.651-.031.104.028.139.153.17l.762.19c.131.031.211.071.233.003.021-.062-.031-.207-.012-.27.046-.14.327-.268.452-.654.18-.549-.164-1.077-.805-1.285-.582-.19-.89.017-1.23.355-.643.626-.811.898-1.283.745-.443-.143-.619-.512-.5-.879.171-.521.771-.648 1.354-.625.077.002.131.011.154-.065.039-.117-.137-.123-.219-.134l-.809-.097zm1.822 4.203c.521.188.197.466.385.534.065.023.085.006.137-.137l.195-.604c.057-.163.146-.336.214-.519.015-.042.073-.15-.021-.185-.193-.071-.23.509-.73.327L99.233 69c-.523-.19-.259-.472-.449-.543-.028-.009-.071-.015-.085.028l-.168.528-.278.697c-.041.107-.031.159.028.179.176.065.113-.549.787-.301l2.618.954zm-1.671-.057c-1.114-.404-2.085-.049-2.426.887-.537 1.481.702 2.255 1.471 2.533 1.165.424 2.124-.012 2.444-.921.393-1.114-.289-2.062-1.489-2.499zm1.302 2.274c-.205.603-1.049.938-2.263.497-.91-.332-1.553-.861-1.277-1.666.288-.836 1.542-.714 2.341-.42s1.469.798 1.199 1.589z"/></g><path d="M57.283 83.298c-.152-.455-.263-.784-.59-1.317-.575-.937-.77-1.207-1.739-2.41l-.179-.227.957-1.07.098-.11.222-.144-.04-.06.003-.002-.008-.005-.485-.735c-.589-.883-1.054-1.581-1.573-2.71-.804-1.733-1.128-2.742-1.594-4.487l-.018.005.007-.027-.606.152-1.474.369c-2.38-6.097-3.044-11.516-1.987-16.342l3.405 1.458.397.171.111-.419 1.586-6.033.145-.18-.086-.045.001-.003-.015-.004-.305-.158-1.498-.777.639-2.875.208-.256-.353-.226-6.59-4.217-.201.314-.305-.216c-3.586 5.062-5.652 11.375-5.819 17.778-.174 6.675 1.641 13.062 5.247 18.473l.199.298.306-.186 2.081-1.264a16.6 16.6 0 0 0 .65 1.282c.104.178.248.385.379.562l-1.91 1.243.203.313-.32.192.212.356c1.301 2.199 4.347 7.351 7.409 6.328.896-.3 1.465-.771 2.014-1.228.344-.285.699-.58 1.147-.848l.259-.155c0-.002-.098-.288-.098-.288l-.092-.27zm-2.964-4.564a30.66 30.66 0 0 1-1.271-1.918l1.845 1.275-.574.643zm-3.006-7.707l-.319 1.265-.452-1.071.771-.194zm.264-16.247l-3.126-1.34.177-.645 1.971.233.206.023.13-.161 1.693-2.108-1.051 3.998zm-2.72-2.709c.629-1.868 1.534-3.644 2.718-5.331l-1.224 5.508-1.494-.177zm3.91-2.653l-1.413 1.758.496-2.233.917.475zm-7.494 26.831c-3.39-5.217-5.096-11.34-4.93-17.737.16-6.135 2.106-12.18 5.482-17.072l5.938 3.8c-5.863 7.455-6.271 16.565-1.246 27.826l-5.244 3.183zm2.8-.826l3.113-1.89.283-.172-.016-.034.046.012.478-1.891a22.58 22.58 0 0 0 1.292 3.372c.375.814.72 1.408 1.096 1.997l-2.128-1.472-.014.02-.062-.116-.341.222-2.733 1.778c-.125-.169-.267-.368-.362-.533a16.38 16.38 0 0 1-.652-1.293zm7.517 8.865c-.542.45-1.01.839-1.773 1.094-2.49.832-5.425-4.131-6.529-5.999l-.03-.052 4.634-3.015c.716 1.28 1.682 2.734 2.481 3.724.952 1.182 1.126 1.422 1.684 2.331.282.462.371.727.519 1.166v.001c-.376.248-.687.502-.986.75zm50.907-25.796c-.166-6.403-2.233-12.717-5.818-17.778l-.305.216-.201-.314-6.591 4.216-.353.227.208.256.639 2.874-1.498.778-.301.156-.021.006v.005l-.082.043.14.175 1.591 6.038.11.418.397-.17 3.405-1.459c1.058 4.828.394 10.246-1.987 16.344l-1.474-.37-.605-.152.007.027-.019-.005c-.466 1.746-.791 2.755-1.593 4.486-.529 1.145-.977 1.816-1.597 2.746l-.507.767.035.022-.028.016.312.35.905 1.012-.148.186c-.764.948-.938 1.113-1.514 1.661l-.456.438c-.661.508-1.044 1.174-.974 1.706.043.321.242.569.56.696.755.302.968.359 1.154.41.104.028.187.05.368.119l.038.014a1.25 1.25 0 0 0 .043.007l.765.113c1.205.186 1.417.192 2.916-.257 2.828-.849 4.503-4.528 4.546-4.774l-.368-.063.195-.319-1.341-.819c.276-.392.679-.976.959-1.438.242-.399.515-.978.653-1.284l2.08 1.263.307.186.198-.298c3.609-5.415 5.423-11.802 5.25-18.477zm-12.254-9.551l.497 2.235-1.413-1.758.916-.477zm.276-2.202c1.184 1.688 2.089 3.464 2.718 5.332l-1.494.177-1.224-5.509zm-.003 8.041l-1.053-4 1.697 2.111.129.161.205-.023 1.973-.233c.062.214.12.429.176.645l-3.127 1.339zm1.036 16.44l-.452 1.071-.319-1.264.771.193zm-4.32 7.038l1.391-.768a14.63 14.63 0 0 1-.889 1.329l-.502-.561zm6.495 1.566c-.439.924-1.883 3.361-3.922 3.974-1.395.418-1.484.403-2.587.233l-.737-.109c-.188-.069-.295-.099-.396-.126-.168-.046-.357-.097-1.071-.383-.088-.035-.093-.071-.097-.101-.029-.22.233-.677.708-1.034l.018-.013c.002-.001.018-.017.018-.017l.461-.441c.587-.559.785-.747 1.58-1.734.703-.874 1.2-1.524 1.891-2.775l4.134 2.526zm-.354-3.113c-.275.453-.688 1.05-.96 1.435l-2.766-1.69-.312-.191-.008-.016-.01.005-.008-.005-.006.012-1.891 1.045c.505-.763.934-1.448 1.412-2.484a22.69 22.69 0 0 0 1.292-3.372l.478 1.891.046-.012-.016.034.283.172 3.114 1.89c-.116.257-.405.885-.648 1.286zm3.448-.462l-5.245-3.184c5.025-11.261 4.617-20.371-1.246-27.826l5.939-3.8c3.375 4.893 5.321 10.938 5.481 17.072.167 6.398-1.54 12.521-4.929 17.738z"/><g class="B"><path d="M75.319 39.262c.014-.801-.933-1.26-2.133-1.281s-2.203.403-2.217 1.205.896 1.253 2.101 1.274c1.199.02 2.237-.398 2.249-1.198zm-14.026 1.056c-.125-.79.748-1.376 1.933-1.563s2.238.094 2.363.884-.714 1.365-1.902 1.554-2.269-.085-2.394-.875zM47.427 70.885c.594-.29.6.333.796.239.107-.055.065-.128.025-.208l-.324-.616-.284-.638c-.065-.131-.094-.227-.213-.167-.14.067.284.568-.327.866l-2.249 1.098c-.239.117-.284.083-.376-.099l-.185-.382c-.272-.506.35-.631.265-.81-.057-.117-.228.028-.284.065l-.433.272c-.048.028-.116.062-.085.131l.688 1.359.648 1.382c.034.064.103.031.157.011l.69-.247c.068-.022.19-.049.145-.145-.097-.2-.685.25-.933-.256l-.182-.376c-.091-.182-.085-.239.154-.355l2.307-1.124z"/><path d="M43.523 68.227c-.366.103-.378.085-.546-.494-.265-.922.467-.729.4-.953-.031-.11-.198-.037-.267-.012l-.521.171c-.049.015-.091.062-.074.125l.333 1.083.344 1.283c.021.065.074.094.123.079.213-.062-.114-.555.366-.69l2.488-.714c.65-.188.466.259.713.19.031-.012.049-.046.031-.108l-.195-.608-.342-1.259c-.111-.393-.628-.552-1.043-.433-.103.028-.108.068-.103.088.054.182.73-.085 1.071 1.101.098.344-.1.381-.429.475l-.68.196c-.31.088-.37.125-.433-.094l-.102-.355c-.143-.498.461-.526.418-.68-.035-.113-.217-.028-.285-.006l-.938.308c-.143.045-.117.094-.105.128.025.094.521-.031.637.381l.088.302c.061.207.021.216-.207.281l-.742.215zm-.1-2.655c.623-.1 1.029-.568.941-1.129-.079-.506-.577-.851-.714-.83-.06.008-.062.04-.06.06.015.079.341.272.387.562.073.464-.476.819-1.001.901-.338.055-.745.031-.805-.347-.043-.265.131-.378.384-.48.037-.015.08-.031.071-.074-.014-.085-.293-.329-.39-.312-.318.051-.338.518-.312.686.107.661.766 1.076 1.499.963zm-1.191-6.325c-.543 0-.307-.359-.518-.359-.048 0-.065.02-.065.104l.023.659-.023.643c0 .069-.011.115.089.115.162 0-.037-.549.571-.549h.779c.122 0 .25.029.25.173v1.481c0 .104-.071.124-.222.124h-.879c-.495 0-.332-.385-.506-.385-.054 0-.083.045-.083.116l.023.643-.023.557c0 .094.006.245.089.245.21 0-.031-.563.571-.563h2.468c.685 0 .486.424.708.424.074 0 .083-.051.083-.111l-.021-.666.021-.727c0-.159-.043-.151-.077-.151-.199 0 0 .619-.686.619h-.87c-.241 0-.298-.016-.298-.245v-1.329c0-.219.06-.204.293-.204h.997c.534 0 .387.363.58.363.04 0 .061-.031.061-.1l-.021-.628.021-.663c0-.064.005-.104-.065-.104-.217 0-.012.519-.714.519h-2.556zm2.644-1.467c.563.057.415.524.637.546.094.01.074-.093.079-.146.015-.135.006-.271.023-.431l.08-.585c.005-.063.025-.188-.052-.195-.262-.025.052.647-1.009.541l-1.877-.188c-.051-.004-.088-.019-.085-.05.003-.024.034-.051.079-.081l3.113-2.103c.045-.031.082-.051.088-.122.006-.06-.037-.062-.158-.075l-3.097-.312c-.58-.057-.407-.467-.571-.483-.018-.001-.071-.007-.083.088-.003.044 0 .221-.031.533l-.077.564c-.008.065.046.085.086.088.182.021.142-.597.646-.546l1.839.184c.137.013.202.03.199.062s-.073.082-.158.139l-2.634 1.753c-.114.079-.147.016-.165.176l-.028.522c-.011.096-.04.183-.052.276-.005.06.038.089.086.094.265.028-.037-.566 1.023-.46l2.099.211zm-1.802-5.671c-.515-.111-.241-.435-.427-.474-.064-.013-.082.009-.113.155l-.111.633-.139.546c-.009.044-.052.163.043.182.188.041.153-.542.645-.438l2.6.553c.514.108.301.43.488.469.028.006.068.006.077-.039l.093-.549.18-.737c.025-.111.012-.16-.048-.173-.174-.037-.04.562-.706.421l-2.582-.549zm1.151-4.585c-.025-.01-.042.021-.051.044-.025.065.142.135.107.224-.054.141-.506.377-.722.939-.449 1.171.509 2.09 1.379 2.423.406.156 1.809.454 2.331-.907.381-.991-.21-1.782-.414-1.862-.031-.012-.074.02-.083.043-.048.12.509.696.233 1.418-.342.888-1.508.868-2.238.588-.69-.267-1.271-.92-1.006-1.604.204-.539.812-.776 1.398-.819.08-.007.199.003.228-.072s-.094-.105-.147-.121l-1.015-.294zm12.229 48.663c.031-.381.023-.415-.068-.461-.13-.064-.283.108-.44.242l-5.977 5.01c-.554.464-1.031.137-1.157.381-.07.137.103.199.242.27l.907.407.921.523c.211.108.483.341.598.119.145-.284-1.027-.668-.638-1.43.128-.254.458-.552.638-.729.585-.577.818-.515.988-.426l1.977 1.006c.262.134.259.265.168 1.26-.034.341-.06.565-.18.799-.326.646-.98.165-1.137.473-.077.147.065.193.247.283l1.126.521 1.271.702c.272.14.352.208.443.026.176-.348-.574-.211-.516-1.126l.587-7.85zm-1.573 3.808c-.014.15-.014.298-.088.446-.054.104-.188.022-.369-.068l-1.365-.696c-.182-.092-.327-.154-.273-.259.074-.148.193-.233.311-.336l1.726-1.476c.108-.091.153-.082.174-.071.051.025.02.012.037.125l-.153 2.335zm49.103-3.848c-.241-.307-.435.433-1.239-.011l-6.867-3.844c-.332-.193-.366-.196-.446-.134-.113.088-.02.302.034.5l2.014 7.535c.184.696-.311.995-.143 1.208.094.122.222-.009.347-.105.257-.199.483-.438.751-.648l.864-.614c.188-.145.512-.295.358-.491-.196-.25-1.038.646-1.564-.025-.176-.225-.307-.648-.389-.885-.279-.776-.123-.961.028-1.078l1.751-1.367c.23-.179.347-.119 1.209.381.295.177.488.296.65.501.446.568-.264.961-.054 1.231.103.13.202.02.364-.105l.946-.799 1.175-.856c.239-.189.336-.234.211-.394zm-5.172-.25l-1.208.944c-.16.125-.276.233-.35.139-.1-.131-.128-.275-.171-.423l-.611-2.189c-.034-.137-.005-.174.011-.188.047-.034.018-.012.132.02l2.046 1.123c.135.077.268.14.37.271.074.093-.06.178-.219.303zM65.668 30.042l-.235-1.101a.83.83 0 0 0-.986-.64l-.953.208-.213-1.004c-.095-.449-.538-.736-.987-.641l-1.086.231a.83.83 0 0 0-.643.986l.205 1-.941.2a.83.83 0 0 0-.639.986l.232 1.101a.83.83 0 0 0 .986.64l4.617-.98c.45-.094.737-.536.643-.986zm-2.97 1.401a1.2 1.2 0 0 1-1.422-.923 1.2 1.2 0 0 1 .924-1.421 1.2 1.2 0 0 1 1.422.922 1.2 1.2 0 0 1-.924 1.422zm12.675-4.309h-.964l-.006-1.02a.83.83 0 0 0-.83-.832h-1.115c-.459 0-.832.373-.832.832v1.024l-.975-.004c-.461 0-.834.372-.834.832v1.124c0 .459.373.832.834.832h4.722a.83.83 0 0 0 .833-.832v-1.124a.83.83 0 0 0-.833-.832zm-2.358 2.709a1.2 1.2 0 0 1-1.201-1.198 1.2 1.2 0 0 1 1.201-1.198c.663 0 1.197.537 1.197 1.198s-.534 1.198-1.197 1.198zm13.25-.559l-.941-.2.205-1a.83.83 0 0 0-.64-.986l-1.09-.231a.83.83 0 0 0-.986.641L82.6 28.51l-.952-.208a.83.83 0 0 0-.987.64l-.235 1.101c-.094.449.193.892.643.987l4.617.98a.83.83 0 0 0 .987-.64l.232-1.101a.83.83 0 0 0-.64-.985zm-1.447 1.236a1.2 1.2 0 0 1-1.422.923 1.2 1.2 0 0 1-.924-1.422 1.2 1.2 0 0 1 1.421-.922 1.2 1.2 0 0 1 .925 1.421zm9.399.827c-.395-.237-.907-.109-1.143.284l-.526.879-.836-.506a.83.83 0 0 0-1.14.284l-.58.964c-.236.396-.108.906.284 1.143l1.812 1.154a.83.83 0 0 0 1.143-.284l.58-.963.415-.751.944-1.632-.953-.572zm-1.925 4.044a1.2 1.2 0 0 1-.409-1.644c.341-.569 1.077-.751 1.644-.41l-1.235 2.054zm-36.19-2.139l-.58-.964a.83.83 0 0 0-1.141-.284l-.833.506-.529-.879c-.235-.394-.747-.521-1.143-.284l-.952.572.946 1.632.415.751.58.963c.236.396.745.522 1.141.284l1.811-1.154a.83.83 0 0 0 .285-1.143zm-2.301 2.139l-1.234-2.054c.566-.341 1.303-.159 1.644.41a1.2 1.2 0 0 1-.41 1.644z"/><path d="M45.832 30.739c-.071-.061-.162-.065-.219 0-.063.071-.071.189-.134.261-.048.057-.168.193-.367.133l-3.457-1.031c-.088-.078.012-.355-.014-.742-.035-.395-.185-.89-.756-1.387-.413-.358-1.801-1.314-3.162.256L36.5 29.706l-.766.806c-.073.087-.09.198-.002.276.324.278.671-.789 1.672.082l3.94 3.424c1.126.98.327 1.305.614 1.554.179.154.281-.019.35-.099l.924-1.133c.262-.3.467-.462.571-.584.143-.165.14-.271.061-.338-.324-.282-.575.747-1.53-.086l-1.55-1.347c-.312-.271-.412-.284-.082-.663.31-.358.503-.417 1.04-.239l1.937.629c.714.229 1.476.488 1.968-.077.247-.286.463-.93.185-1.172zm-5.416.358c-.188.215-.418.479-.643.285l-1.809-1.573c-.537-.466-.344-.688-.114-.952.629-.724 1.642-.549 2.517.213.529.46.993.938.049 2.027zm24.337-9.827c-.122-.373-.467.226-1.015-.482l-4.68-6.111c-.229-.3-.251-.316-.333-.291-.117.039-.095.267-.097.469l-.23 7.62c-.02.705-.501.786-.418 1.046.048.145.185.077.312.036.262-.086.51-.215.779-.303.287-.095.574-.137.861-.23.19-.062.494-.074.421-.312-.1-.305-1.018.191-1.279-.618-.088-.271-.091-.708-.103-.954-.034-.812.142-.919.296-.969l1.776-.576c.236-.077.316.021.902.804.195.273.326.455.406.703.225.688-.458.772-.35 1.1.051.156.159.097.324.044l.978-.368 1.178-.332c.247-.082.335-.085.272-.276zm-4.185-2.195l-1.226.399c-.164.051-.287.105-.324-.009-.051-.157-.036-.298-.033-.449l.045-2.223c.003-.139.037-.161.055-.168.045-.015.02-.006.102.068l1.402 1.8c.091.122.185.228.236.387.036.113-.095.142-.257.195zm60.049 38.46c-.011-.123-.241-.147-.438-.194l-7.427-1.854c-.688-.171-.665-.661-.938-.635-.153.018-.116.165-.103.299.029.274.103.546.131.83.031.303.012.592.043.896.02.199-.034.501.213.477.321-.032.029-1.036.882-1.121.284-.029.714.062.958.104.805.14.87.333.887.495l.188 1.868c.023.247-.09.306-.983.711-.31.136-.515.225-.776.25-.722.073-.659-.614-1.004-.579-.167.016-.13.138-.113.309l.15 1.038.077 1.228c.025.257.009.345.211.325.392-.04-.122-.507.69-.894l6.998-3.286c.343-.161.365-.181.354-.267zm-2.36-.041l-2.07.992c-.137.062-.261.131-.427.148-.119.011-.119-.122-.137-.293l-.13-1.29c-.018-.17-.043-.303.076-.313.165-.018.302.028.449.06l2.17.521c.136.035.153.07.153.091.007.047.003.018-.084.084zm-14.782-6.554c-.375-1.12-1.496-1.447-2.713-1.052-1.129.367-1.672 1.245-1.364 2.189.489 1.501 1.942 1.345 2.722 1.094 1.175-.382 1.665-1.317 1.355-2.231zm-1.763 1.724c-.922.298-1.751.277-2.03-.526-.29-.836.773-1.51 1.584-1.774s1.648-.275 1.925.515c.207.602-.25 1.384-1.479 1.785zm.142-5.468l-.443-.896-.225-.535c-.022-.054-.07-.086-.125-.062-.19.09.233.486-.358.764l-2.331 1.086c-.666.312-.66-.133-.83-.055-.105.051-.046.136-.023.186l.345.682c.088.188.122.318.156.395.048.103.097.124.145.102.19-.09-.233-.432.333-.695l.916-.427c.188-.087.21-.131.32.106.105.224.094.327-.091.539l-.659.767c-.242.281-.509.581-.344.934.082.179.338.421.5.344.043-.02.062-.06.045-.101-.022-.044-.073-.075-.096-.119-.018-.036-.058-.121.011-.201l1.138-1.387c.054-.026.162.082.344.156.188.07.443.107.782-.049.243-.115.948-.554.49-1.534zm-.895 1.049c-.313.146-.623.258-.941-.424-.062-.133-.14-.3-.006-.36l1.068-.501c.316-.147.382-.008.459.158.212.452-.062.885-.58 1.127zm3.708 9.519c-.211-.021-.049.54-.703.475l-2.569-.258c-.737-.073-.503-.454-.691-.473-.116-.012-.108.094-.113.147l-.054.764c-.021.209-.057.34-.066.422-.011.114.021.158.074.162.211.022.02-.491.643-.429l1.013.102c.204.021.247-.005.222.256-.026.248-.086.332-.355.419l-.964.323c-.353.12-.739.242-.776.632-.021.197.076.537.256.555.049.005.086-.021.088-.066s-.022-.102-.02-.151c.006-.039.015-.134.111-.17l1.697-.613c.057.005.097.154.216.312a.96.96 0 0 0 .702.358c.268.028 1.1.012 1.208-1.072l.077-1.001.082-.575c.004-.061-.022-.113-.078-.119zm-.313 1.467c-.049.499-.51.733-1.081.676-.347-.034-.671-.097-.594-.849.014-.148.031-.33.179-.316l1.18.118c.349.036.336.189.316.371zM49.877 45.003c-.159-.088-.102.252-.523.2l-3.613-.466c-.176-.024-.19-.021-.213.019-.031.057.048.131.107.203l2.275 2.805c.21.259.06.465.17.526.062.034.092-.04.125-.102.071-.126.123-.263.193-.394.077-.139.171-.259.248-.399.051-.091.158-.208.057-.263-.131-.074-.312.44-.662.247-.117-.065-.254-.219-.333-.304-.262-.277-.23-.378-.19-.454l.475-.857c.062-.113.125-.107.58-.042.159.022.262.041.369.101.296.164.071.442.211.521.068.037.091-.025.133-.104l.248-.49.33-.552c.064-.115.096-.149.013-.195zm-2.22.751l-.33.594c-.042.077-.07.143-.119.114-.068-.037-.105-.093-.153-.146l-.671-.811c-.04-.053-.034-.072-.031-.081.015-.021.006-.009.06-.013l1.075.129c.068.009.137.014.204.052.048.026.008.085-.035.162z"/></g><path d="M89.556 44.668l-.369-.005H55.383v18.665c0 8.238.502 15.052 6.817 21.479 3.72 3.784 6.249 5.517 10.44 8.386l.257.176.461.315.431-.355c1.292-1.07 2.422-1.884 3.515-2.671 2.247-1.618 4.188-3.017 6.657-5.963 6.018-7.181 7.076-12.611 7.076-21.367v-18.66h-1.481zm-6.73 39.077c-2.351 2.804-4.222 4.151-6.388 5.713-1.112.801-1.83 1.275-3.16 2.376-3.997-2.735-6.462-4.444-10.021-8.064-5.934-6.039-6.393-12.281-6.393-20.44V46.145l32.691.002v17.182c.001 8.563-.971 13.544-6.729 20.416z"/><path d="M109.098 26.405l-.596-1.072-.547 1.704.361.65zm-42.477-6.853c.294 1.387-.878 1.051-.782 1.504.056.257.211.213.38.177l1.293-.324 1.316-.23c.27-.058.463-.062.403-.343-.069-.324-1.189.268-1.494-1.166l-1.119-5.264c-.119-.56-.039-.639.344-.719l.791-.169c1.062-.273 1.039 1.083 1.412 1.004.242-.052.042-.484-.006-.621l-.33-1.048c-.033-.114-.069-.278-.207-.248l-2.842.651-2.861.56c-.14.03-.104.193-.09.312l.178 1.567c.014.156.012.425.208.383.42-.09-.184-1.555.868-1.778l.782-.168c.383-.08.489-.041.607.517l1.149 5.403zm-12.484 4.39c.654 1.257-.564 1.248-.35 1.659.121.233.259.147.412.068l1.158-.659 1.205-.575c.245-.129.432-.184.298-.438-.153-.295-1.075.574-1.751-.724l-2.49-4.771c-.266-.506-.209-.604.139-.782l.718-.377c.948-.547 1.29.765 1.628.588.219-.113-.09-.477-.172-.594l-.6-.923c-.063-.102-.143-.249-.268-.184l-2.562 1.392-2.605 1.305c-.126.066-.048.215-.002.323l.592 1.465c.054.146.126.405.303.312.379-.198-.595-1.448.359-1.946l.709-.369c.346-.182.458-.172.723.333l2.556 4.897zm14.176 73.873l-1.215.084 1.307 1.208.734-.052z" class="B"/><path d="M158.68 17.207c.406.094.842.155 1.278.155.312 0 .655-.062.936-.155-.249 2.898-.499 8.387-.562 12.938-.062 5.518-3.273 8.979-8.885 8.979-6.173 0-8.917-2.868-8.917-8.917 0-1.933.156-3.366.156-4.925 0-3.43-.125-6.268-.187-8.075.498.094 1.121.155 1.62.155.437 0 .937-.062 1.341-.155-.187 1.84-.374 6.079-.374 10.693 0 4.24 0 9.758 6.952 9.758 6.828 0 6.828-6.391 6.828-10.318.002-5.924.002-8.918-.186-10.133zm27.753 21.917c-4.738-5.58-10.413-11.567-15.744-17.241-.031 1.154-.094 3.024-.094 6.33 0 2.681.125 9.259.281 10.506a4.18 4.18 0 0 0-1.091-.156c-.375 0-.749.062-1.154.156.25-1.465.654-9.447.654-13.562l-.094-8.355h.5l15.775 16.866c0-5.58 0-11.659-.25-16.461.344.094.717.155 1.061.155s.654-.062.997-.155c-.187 1.84-.499 8.012-.499 10.444l.094 11.473h-.436zm9.079-13.842l-.25-8.075a8.71 8.71 0 0 0 1.527.155 8.82 8.82 0 0 0 1.529-.155l-.25 8.075v5.361l.25 8.075c-.531-.094-1.029-.156-1.529-.156s-.997.062-1.527.156l.25-8.075v-5.361zm8.085-8.075c.53.094 1.091.155 1.622.155s1.091-.062 1.621-.155c1.838 5.518 4.488 12.128 7.107 18.425 2.275-5.05 5.768-14.341 7.077-18.425a4.86 4.86 0 0 0 1.153.155c.374 0 .779-.062 1.153-.155-3.241 7.171-6.235 14.341-8.978 21.512a3.92 3.92 0 0 0-1.029-.156c-.344 0-.749.062-1.029.156-1.869-5.145-5.672-14.342-8.697-21.512zm25.183 8.043l-.249-8.044 5.581.155 5.55-.155c-.063.312-.094.624-.094.936s.03.623.093.935l-8.199-.405-.125 3.96.031 4.115 7.576-.312a5.1 5.1 0 0 0-.094.966c0 .312.031.624.094.936-2.152-.218-6.079-.28-7.576-.28l-.031 4.521.062 4.677 8.418-.405a5.1 5.1 0 0 0-.094.966c0 .28.031.624.094.904l-5.613-.156-5.673.156.249-8.105V25.25zm17.522.032l-.249-8.075 3.554.155 3.558-.155c3.522 0 6.484 1.216 6.484 4.925 0 4.022-4.021 5.644-6.392 5.956l8.543 10.631c-.623-.094-1.247-.156-1.87-.156a11.73 11.73 0 0 0-1.809.156c-1.247-1.901-5.395-7.639-8.078-10.351h-1.185v2.275c0 2.682.124 5.395.249 8.075-.53-.094-1.028-.156-1.528-.156s-.997.062-1.526.156c.124-2.681.249-5.394.249-8.075v-5.361zm2.557 1.776c.562.125 1.277.156 2.089.156 2.56 0 5.958-1.061 5.958-4.771 0-3.273-2.713-4.084-4.833-4.084-1.438 0-2.372.094-3.027.156l-.187 6.766v1.777zm17.967 7.514c.688 1.466 2.246 3.242 4.927 3.242 2.775 0 4.458-2.026 4.458-4.521 0-5.737-9.82-3.273-9.82-10.6 0-3.461 2.618-5.893 6.765-5.893 1.965 0 3.367.467 4.614 1.465-.374.718-.592 1.435-.841 2.619h-.374c-.438-1.153-1.372-2.931-3.711-2.931s-4.021 1.59-4.021 3.865c0 5.831 9.82 3.398 9.82 10.289 0 3.804-2.837 7.015-7.638 7.015-2.588 0-4.053-.904-5.145-1.777.374-.966.468-1.59.592-2.774h.374zm18.798-9.29l-.25-8.075c.53.094 1.029.155 1.529.155s.997-.062 1.526-.155l-.249 8.075v5.361l.249 8.075c-.529-.094-1.028-.156-1.526-.156s-.999.062-1.529.156l.25-8.075v-5.361zm-143.086 31.8l-.249-8.075 3.024.156 3.865-.156c1.871 0 6.828.062 6.828 5.269 0 5.487-5.394 6.548-8.387 6.548a31.43 31.43 0 0 1-2.525-.094v1.714c0 2.682.125 5.395.249 8.075-.529-.094-1.028-.155-1.527-.155s-.997.062-1.527.155c.125-2.681.249-5.394.249-8.075v-5.362zm2.556 2.337c.654.156 1.527.249 2.213.249 2.557 0 5.83-.966 5.83-5.206 0-3.554-2.025-4.303-5.237-4.303h-2.806v9.26zm26.052-10.818c6.89 0 11.69 4.084 11.69 11.161s-4.801 11.162-11.69 11.162c-6.859 0-11.66-4.085-11.66-11.162s4.801-11.161 11.66-11.161zm0 1.154c-4.864 0-8.605 3.086-8.605 10.007s3.741 10.008 8.605 10.008c4.895 0 8.636-3.087 8.636-10.008s-3.741-10.007-8.636-10.007zm16.864 7.327l-.25-8.075c.53.093 1.029.156 1.527.156s.998-.063 1.528-.156l-.249 8.075.094 11.972 8.604-.405c-.094.312-.156.623-.156.935s.062.624.156.936l-5.736-.155-5.768.155.25-8.075v-5.363zm16.958 0l-.25-8.075c.53.093 1.029.156 1.528.156s.998-.063 1.527-.156l-.25 8.075v5.361l.25 8.075c-.529-.094-1.029-.155-1.527-.155s-.998.062-1.528.155l.25-8.075v-5.361zm14.589 0l-.094-6.454c-2.15 0-4.926.125-6.671.343a3.46 3.46 0 0 0 .156-.997c0-.312-.062-.624-.156-.967l8.044.156 8.043-.156c-.093.343-.156.654-.156.998 0 .312.063.654.156.966-1.746-.218-4.521-.343-6.672-.343l-.094 6.454v5.361l.25 8.075c-.529-.094-1.029-.155-1.527-.155s-.998.062-1.528.155l.249-8.075v-5.361zm47.372 12.064c-.779.624-3.366 1.778-6.484 1.778-6.577 0-11.38-4.085-11.38-11.162s4.803-11.161 11.691-11.161c2.682 0 5.082.654 6.767 1.434-.312.562-.53 1.777-.655 2.433l-.187.062c-.873-.966-2.993-2.773-5.925-2.773-4.895 0-8.636 3.086-8.636 10.007s3.741 10.008 8.636 10.008c2.962 0 5.145-1.684 6.33-2.588l.125.125-.282 1.837zm23.539 1.778c-4.738-5.581-10.413-11.567-15.743-17.241-.032 1.153-.094 3.023-.094 6.329 0 2.681.123 9.259.279 10.506a4.16 4.16 0 0 0-1.091-.155c-.374 0-.747.062-1.153.155.25-1.465.655-9.446.655-13.562l-.094-8.355h.499L289.5 65.468c0-5.581 0-11.66-.248-16.462.342.093.716.156 1.06.156s.655-.063.997-.156c-.187 1.84-.498 8.012-.498 10.444l.093 11.474h-.436zm7.615-13.842l-.25-8.075c.53.093 1.028.156 1.528.156s.998-.063 1.527-.156l-.25 8.075v5.361l.25 8.075c-.529-.094-1.029-.155-1.527-.155s-.998.062-1.528.155l.25-8.075v-5.361zm26.263 12.064c-.779.624-3.367 1.778-6.484 1.778-6.579 0-11.381-4.085-11.381-11.162s4.802-11.161 11.691-11.161c2.682 0 5.083.654 6.766 1.434-.312.562-.529 1.777-.654 2.433l-.188.062c-.873-.966-2.993-2.773-5.924-2.773-4.895 0-8.635 3.086-8.635 10.007s3.74 10.008 8.635 10.008c2.963 0 5.145-1.684 6.33-2.588l.124.125-.28 1.837zM142.779 88.881l-.249-8.075 4.708.156 4.707-.156c7.296 0 10.288 3.897 10.288 10.319 0 8.324-6.422 11.192-11.348 11.192-1.403 0-2.774-.155-4.178-.155s-2.775.062-4.178.155c.125-2.681.249-5.394.249-8.074v-5.362zm2.556 5.363c0 2.213.062 4.458.188 6.609.873.187 2.494.312 4.084.312 4.583 0 9.571-1.809 9.571-10.039 0-7.232-3.741-9.01-8.854-9.01-1.839 0-3.522.155-4.801.312-.125 1.995-.188 4.209-.188 6.454v5.362zm20.816-5.394l-.25-8.044 5.581.156 5.549-.156a4.79 4.79 0 0 0-.093.936 4.8 4.8 0 0 0 .093.936l-8.199-.406-.124 3.96.03 4.115 7.576-.312a5.1 5.1 0 0 0-.093.967c0 .312.03.623.093.935-2.151-.218-6.079-.28-7.576-.28l-.03 4.521.062 4.676 8.418-.405a5.1 5.1 0 0 0-.094.966 4.4 4.4 0 0 0 .094.904l-5.612-.155-5.674.155.25-8.105V88.85zm31.243-8.044c.53.094 1.091.156 1.622.156s1.092-.062 1.621-.156c1.839 5.519 4.488 12.128 7.108 18.426 2.274-5.051 5.768-14.342 7.077-18.426.373.094.779.156 1.152.156s.78-.062 1.154-.156c-3.242 7.171-6.236 14.342-8.979 21.512-.344-.094-.687-.155-1.029-.155s-.748.062-1.028.155c-1.87-5.144-5.673-14.341-8.698-21.512zm43.546 8.075l-.249-8.075c.529.094 1.028.156 1.526.156s.999-.062 1.531-.156l-.25 8.075.094 11.972 8.605-.405c-.094.312-.156.623-.156.936s.062.623.156.935l-5.736-.155-5.771.155.249-8.074v-5.364zm50.777 13.842c-4.739-5.58-10.413-11.566-15.745-17.24-.03 1.153-.092 3.024-.092 6.329 0 2.681.124 9.259.279 10.506-.343-.094-.717-.155-1.091-.155s-.748.062-1.153.155c.25-1.465.654-9.446.654-13.562l-.093-8.355h.498l15.775 16.867c0-5.581 0-11.66-.249-16.462.343.094.717.156 1.06.156s.654-.062.998-.156c-.188 1.84-.499 8.013-.499 10.444l.094 11.473h-.436zM315 100.946c-.779.624-3.367 1.777-6.484 1.777-6.579 0-11.38-4.084-11.38-11.161s4.801-11.161 11.691-11.161c2.682 0 5.082.654 6.765 1.434-.312.562-.529 1.777-.654 2.433l-.188.062c-.873-.966-2.992-2.773-5.923-2.773-4.895 0-8.636 3.086-8.636 10.007s3.741 10.008 8.636 10.008c2.962 0 5.144-1.684 6.329-2.587l.124.124-.28 1.837zm5.461-12.065l-.25-8.075c.529.094 1.029.156 1.527.156s.997-.062 1.528-.156l-.25 8.075v5.362l.25 8.074c-.531-.094-1.029-.155-1.528-.155s-.998.062-1.527.155l.25-8.074v-5.362zm12.061-21.04a2.45 2.45 0 0 1 2.449-2.448 2.45 2.45 0 0 1 2.448 2.448 2.45 2.45 0 0 1-2.448 2.448 2.45 2.45 0 0 1-2.449-2.448h0zm8.455-5.939l-3.896-9.354-3.992 9.354-3.023 8.355c-.405-.094-.779-.156-1.152-.156a5.1 5.1 0 0 0-1.155.156l9.759-21.918h.594l9.383 21.918c-.561-.094-1.092-.156-1.651-.156s-1.091.062-1.652.156c-.596-2.151-2.094-5.581-3.215-8.355zm-8.352 37.773a2.45 2.45 0 0 1 2.448-2.448 2.45 2.45 0 0 1 2.449 2.448 2.45 2.45 0 0 1-2.449 2.449 2.45 2.45 0 0 1-2.448-2.449h0zm8.455-5.939l-3.897-9.354-3.99 9.354-3.023 8.355c-.406-.094-.779-.156-1.153-.156s-.749.062-1.155.156l9.759-21.918h.593l9.383 21.918c-.56-.094-1.09-.156-1.65-.156s-1.092.062-1.652.156c-.597-2.151-2.093-5.581-3.215-8.355zm-119.302 5.939a2.45 2.45 0 0 1 2.449-2.448 2.45 2.45 0 0 1 2.449 2.448 2.45 2.45 0 0 1-2.449 2.449 2.45 2.45 0 0 1-2.449-2.449h0zm8.456-5.939l-3.897-9.354-3.99 9.354-3.024 8.355c-.405-.094-.779-.156-1.153-.156s-.749.062-1.154.156l9.758-21.918h.594l9.383 21.918c-.56-.094-1.091-.156-1.65-.156s-1.092.062-1.653.156c-.596-2.151-2.093-5.581-3.214-8.355zm70.253-68.214l-.094-6.454c-2.151 0-4.927.125-6.672.343.094-.312.156-.654.156-.997 0-.312-.062-.624-.156-.967l8.044.156 8.042-.156c-.092.343-.155.655-.155.998a3.53 3.53 0 0 0 .155.966c-1.744-.218-4.52-.343-6.671-.343l-.094 6.454v5.362l.25 8.074a8.71 8.71 0 0 0-1.527-.155c-.499 0-.999.062-1.528.155l.25-8.074v-5.362zm37.683 0l-.094-6.454c-2.15 0-4.926.125-6.671.343.094-.312.156-.654.156-.997 0-.312-.062-.624-.156-.967l8.044.156 8.043-.156c-.093.343-.156.655-.156.998 0 .312.063.654.156.966-1.746-.218-4.521-.343-6.672-.343l-.094 6.454v5.362l.25 8.074c-.529-.094-1.029-.155-1.527-.155s-.998.062-1.528.155l.249-8.074v-5.362z"/><path d="M265.27 79.045l-3.982-3.929c-.379-.377-.758-.816-1.2-1.131-.129-.126-.253-.157-.411-.22-.538-.126-1.107.155-1.295.659a1.13 1.13 0 0 0 .031.849c.188.314.505.473.789.692l4.962 3.079h1.106zm-5.277 3.27h2.432l3.163.063c.949.062 1.894.158 2.844.346-.032-.314-.097-.629-.097-.944s.064-.596.097-.942h-11.218v21.408h11.408c-.035-.315-.098-.627-.098-.941s.062-.599.098-.945a22.73 22.73 0 0 1-2.909.284l-5.72.126v-9.181h4.897c.95 0 1.864.127 2.815.157l-.098-.88c0-.282.065-.565.098-.816l-2.815.155h-4.897v-7.89zM241.491 47.35l-3.985-3.93c-.378-.376-.755-.818-1.198-1.131-.129-.126-.254-.156-.412-.219-.537-.126-1.106.155-1.295.658-.096.283-.096.565.03.849.188.315.506.474.789.692l4.964 3.08h1.107zm-5.28 3.272h2.432l3.162.061c.948.062 1.895.159 2.845.346-.031-.313-.096-.629-.096-.944s.064-.596.096-.941h-11.218v21.409h11.407c-.032-.315-.095-.628-.095-.942s.062-.6.095-.946a22.36 22.36 0 0 1-2.91.284l-5.718.129v-9.182h4.896c.953 0 1.867.124 2.815.155l-.098-.877c0-.283.067-.567.098-.818l-2.815.156h-4.896v-7.89z" class="B"/><path d="M315.678 36.105c0-1.351 1.103-2.446 2.459-2.446s2.46 1.096 2.46 2.446a2.45 2.45 0 0 1-2.46 2.446c-1.356 0-2.459-1.094-2.459-2.446zm4.544-19.304h.632l8.955 20.733.538 1.13c-.538-.062-1.073-.094-1.611-.094-.565 0-1.165 0-1.733.094l-.283-.909-1.421-3.764-1.542-3.701-3.969-9.467-4.045 9.467-3.088 8.374c-.348-.094-.727-.094-1.104-.094a7.4 7.4 0 0 0-1.166.094l9.837-21.863z"/></svg>