<svg xmlns="http://www.w3.org/2000/svg" width="1027.992" height="529.556"><style>.G{fill:#3f3d56}.H{fill:#00b0ff}.I{fill:#d0cde1}</style><path d="M305.992 295.386h343.72v234.17h-343.72z" class="H"/><g class="G"><path d="M668.882 267.996h-338.24a4.116 4.116 0 0 0-4.11 4.11v228.69a4.11 4.11 0 0 0 4.11 4.11h338.24a4.11 4.11 0 0 0 4.11-4.11v-228.69a4.116 4.116 0 0 0-4.11-4.11zm1.37 232.8a1.366 1.366 0 0 1-1.37 1.37h-338.24a1.366 1.366 0 0 1-1.37-1.37v-228.69a1.37 1.37 0 0 1 1.37-1.37h338.24a1.37 1.37 0 0 1 1.37 1.37z"/><rect width="154.743" height="17.802" x="344.335" y="429.587" rx="2"/><path d="M640.122 414.526h-49.29a4.11 4.11 0 0 0-4.11 4.11v38.34a4.11 4.11 0 0 0 4.11 4.11h49.29a4.11 4.11 0 0 0 4.11-4.11v-38.34a4.11 4.11 0 0 0-4.11-4.11zm1.37 42.45a1.37 1.37 0 0 1-1.37 1.37h-49.29a1.37 1.37 0 0 1-1.37-1.37v-38.34a1.366 1.366 0 0 1 1.37-1.37h49.29a1.366 1.366 0 0 1 1.37 1.37z"/><rect width="33.603" height="6.952" x="598.676" y="423.372" rx="2"/><rect width="33.603" height="6.952" x="598.676" y="434.328" rx="2"/><rect width="33.603" height="6.952" x="598.676" y="445.283" rx="2"/><rect width="71.209" height="30.127" x="348.444" y="284.431" rx="2"/></g><path d="M389.526 299.494c0 5.294-2.452 9.586-5.478 9.586s-5.478-4.292-5.478-9.586 5.478-9.586 5.478-9.586 5.478 4.292 5.478 9.586z" class="H"/><g class="G"><path d="M901.992 161.837h-2v223.614h-227v2h229V161.837zm-596 225.614h-229V161.837h2v223.614h227v2z"/><path d="M1027.351 37.81h-1.282v-2.243h.961a.64.64 0 0 0 .641-.641V23.391a.64.64 0 0 0-.641-.641h-.961v-6.551a13.958 13.958 0 0 0-13.956-13.956h-1.424V.641a.64.64 0 0 0-.641-.641h-11.535a.64.64 0 0 0-.641.641v1.602H789.457a13.958 13.958 0 0 0-13.956 13.956v296.994a13.958 13.958 0 0 0 13.956 13.956h222.657a13.958 13.958 0 0 0 13.956-13.956V50.626h1.282a.64.64 0 0 0 .641-.641V38.45a.64.64 0 0 0-.641-.641z"/></g><rect width="229.423" height="304.406" x="787.035" y="11.372" rx="1.905" class="I"/><g class="G"><rect width="39.357" height="11.663" x="875.401" y="160.558" rx="2"/><rect width="134.517" height="4.998" x="827.821" y="69.754" rx="2"/><rect width="134.517" height="4.998" x="827.821" y="85.582" rx="2"/><rect width="134.517" height="4.998" x="827.821" y="101.41" rx="2"/><rect width="134.517" height="4.998" x="827.821" y="117.239" rx="2"/><rect width="134.517" height="4.998" x="827.821" y="133.067" rx="2"/></g><circle cx="890.317" cy="261.978" r="41.78" class="H"/><path d="M902.632 294.204a52.382 52.382 0 1 1 52.381-52.381c-.033 28.916-23.466 52.349-52.382 52.382zm0-102.859c-27.878 0-50.477 22.599-50.477 50.477s22.599 50.477 50.477 50.477 50.477-22.599 50.477-50.477c-.031-27.865-22.612-50.446-50.477-50.477zM155.492 87.912h-1.713V40.973a27.167 27.167 0 0 0-27.167-27.167H27.167A27.167 27.167 0 0 0 0 40.973V298.48a27.167 27.167 0 0 0 27.167 27.167h99.445a27.167 27.167 0 0 0 27.167-27.167V121.323h1.713z" class="G"/><path d="M147.993 42.57v257.132c.002 11.205-9.08 20.29-20.285 20.292H27.783c-11.205-.002-20.287-9.087-20.285-20.292V42.57a20.29 20.29 0 0 1 20.285-20.285h12.123a9.64 9.64 0 0 0 8.925 13.276h56.972a9.64 9.64 0 0 0 8.925-13.276h12.98a20.29 20.29 0 0 1 20.285 20.285z" class="I"/><g class="G"><rect width="26.768" height="7.933" x="64.362" y="173.773" rx="2"/><rect width="91.492" height="3.4" x="32" y="112.012" rx="1.7"/><rect width="91.492" height="3.4" x="32" y="122.778" rx="1.7"/><rect width="91.492" height="3.4" x="32" y="133.544" rx="1.7"/><rect width="91.492" height="3.4" x="32" y="144.309" rx="1.7"/><rect width="91.492" height="3.4" x="32" y="155.075" rx="1.7"/></g><circle cx="69.875" cy="256.355" r="28.813" class="H"/><path d="M78.367 278.579a36.125 36.125 0 1 1 36.124-36.124c-.023 19.942-16.183 36.102-36.125 36.125zm0-70.936c-19.226 0-34.811 15.585-34.811 34.811s15.585 34.811 34.811 34.811 34.811-15.585 34.811-34.811c-.022-19.217-15.594-34.789-34.811-34.811z" class="G"/><path d="M147.505 375.19h28v28h-28z" class="I"/><path d="M192.505 387.19h-34v-34h34zm-32.522-1.478h31.043v-31.043h-31.043z" class="G"/><path d="M774.505 375.19h28v28h-28z" class="I"/><path d="M819.505 387.19h-34v-34h34zm-32.522-1.478h31.043v-31.043h-31.043z" class="G"/></svg>