<svg xmlns="http://www.w3.org/2000/svg" viewBox="0 0 1200 1000"><path d="M332.58 637.71c0 2.61-.25 4.51-.74 5.72-.6 1.74-1.91 3.36-3.91 4.87-3.1 2.34-7.59 3.51-13.47 3.51h-7.53v-8.27h6.51c2.53-.15 4.47-.73 5.83-1.73s2.04-3.12 2.04-6.37v-40.31h11.27v42.58zm68.61 3.57c0 3.62-1.62 6.4-4.87 8.32-2.3 1.47-5.78 2.21-10.42 2.21h-17.27c-5.28 0-9.24-.94-11.86-2.83s-3.93-4.45-3.93-7.7v-21.23c0-3.7 1.66-6.57 4.98-8.61 2.42-1.47 6.02-2.21 10.81-2.21h17.27c4.79 0 8.3.74 10.53 2.21 3.17 1.92 4.76 4.79 4.76 8.61v21.23zm-9.97-1.98v-17.27c0-1.96-.77-3.4-2.32-4.3-1.25-.87-3.17-1.3-5.78-1.3h-11.83c-2.72 0-4.74.43-6.06 1.3-1.62.91-2.43 2.34-2.43 4.3v17.15c0 1.85.81 3.23 2.43 4.13 1.25.79 3.02 1.19 5.32 1.19h13.25c2.23 0 3.93-.4 5.1-1.19 1.55-.89 2.32-2.24 2.32-4.01zm74.22-22.76h-26.33c-2.38 0-4.15.28-5.32.85-1.62.76-2.43 1.79-2.43 3.11v1.76c0 2.94 2.66 4.42 7.98 4.42h13.02c3.77 0 6.88.92 9.31 2.77s3.65 4.21 3.65 7.08v5.21c0 2.72-1.23 5.12-3.68 7.19-1.47 1.32-3.02 2.13-4.64 2.43-1.32.3-3.26.45-5.83.45h-29.78v-7.3h27.12c2.79 0 4.66-.55 5.6-1.64.68-.83 1.02-2.34 1.02-4.53 0-2.91-2.17-4.36-6.51-4.36h-12.29c-4.15 0-7.59-.81-10.3-2.43-3.02-1.81-4.53-4.17-4.53-7.08v-5.72c0-3.17 1.74-5.72 5.21-7.64 2.11-1.25 5.36-1.87 9.74-1.87h28.99v7.3zm69.34 9.51-38.16 11.27v1.41c0 2.23.85 3.85 2.55 4.87 1.17.6 3.19.91 6.06.91h29.44v7.3h-31.31c-5.4 0-9.38-.81-11.95-2.43-3.25-1.93-4.87-4.98-4.87-9.17v-20.16c0-7.21 5.3-10.81 15.91-10.81h17.49c9.89 0 14.83 3.83 14.83 11.49v5.32zm-10.19-4.13v-.62c0-3.25-2.64-4.87-7.93-4.87h-10.98c-6.11 0-9.17 1.83-9.17 5.49v8.32l28.08-8.32zm128.67 16.19c0 4.38-1.43 7.68-4.3 9.91-3.1 2.53-7.27 3.79-12.51 3.79h-19.59c-6.12 0-10.76-1.08-13.93-3.23-2.15-1.44-3.59-3.17-4.3-5.21-.38-1.17-.57-3.21-.57-6.11v-28.7c0-2.64.3-4.66.91-6.06.87-1.77 2.49-3.34 4.87-4.7 3.02-1.74 7.36-2.6 13.02-2.6h32.33v8.15h-30.01c-3.55 0-6.02.44-7.42 1.3-1.62.98-2.43 2.72-2.43 5.21v27.06c0 2.53.89 4.34 2.66 5.44 1.4.83 3.72 1.25 6.96 1.25h14.61c5.7 0 8.55-2.11 8.55-6.34V620.5h11.15v17.61zm46.53-22.14c-7.7 0-12.17.15-13.42.45-2.64.79-3.96 2.7-3.96 5.72v29.44h-10.3v-31.42c0-7.66 5.38-11.49 16.14-11.49h11.55v7.3zm68.04 25.2c0 3.17-1.25 5.74-3.76 7.7s-5.94 2.94-10.28 2.94h-19.02c-4.53 0-8.15-.85-10.87-2.55-2.94-1.85-4.42-4.44-4.42-7.76v-7.53c0-3.43 1.31-6.08 3.94-7.93 2.62-1.85 6.22-2.77 10.78-2.77h23.78c-.08-2.38-.55-4.08-1.41-5.1-1.06-1.17-3.13-1.76-6.23-1.76h-30.63v-7.3h31.99c10.76 0 16.14 3.6 16.14 10.81v21.25zm-9.96-1.42v-8.21c0-.94-.77-1.42-2.32-1.42h-19.02c-4.72 0-7.08 1.77-7.08 5.32v4.19c0 1.55.7 2.73 2.1 3.54s3.09 1.22 5.1 1.22h14.27c4.63.01 6.95-1.54 6.95-4.64zm70.37 12.06h-22.59c-10.83 0-16.25-3.76-16.25-11.27v-20.61c0-7.21 4.57-10.81 13.7-10.81h24.91v7.3h-20.78c-2.91 0-4.95.39-6.12 1.16s-1.76 2.22-1.76 4.33v16.93c0 3.77 2.79 5.66 8.38 5.66h20.49v7.31zm27.44 0h-9.96v-42.58h9.96v42.58zm0-56.5v7.42h-9.51v-7.42h9.51zm71.56 45.86c0 3.17-1.26 5.74-3.76 7.7-2.51 1.96-5.94 2.94-10.28 2.94h-19.02c-4.53 0-8.15-.85-10.87-2.55-2.95-1.85-4.42-4.44-4.42-7.76v-7.53c0-3.43 1.31-6.08 3.93-7.93s6.22-2.77 10.79-2.77h23.78c-.08-2.38-.55-4.08-1.42-5.1-1.06-1.17-3.13-1.76-6.23-1.76h-30.63v-7.3h31.99c10.76 0 16.14 3.6 16.14 10.81v21.25zm-9.97-1.42v-8.21c0-.94-.77-1.42-2.32-1.42h-19.02c-4.72 0-7.08 1.77-7.08 5.32v4.19c0 1.55.7 2.73 2.09 3.54s3.09 1.22 5.1 1.22h14.27c4.64.01 6.96-1.54 6.96-4.64z" fill="gray"/><linearGradient id="a" x1="631.277" x2="631.277" y1="336.753" y2="516.324" gradientUnits="userSpaceOnUse"><stop offset="0" stop-color="#2bc4f3"/><stop offset=".5" stop-color="#00aeee"/><stop offset="1" stop-color="#0095da"/></linearGradient><path d="M678.57 515.95c0 9.6-.91 16.63-2.71 21.09-2.23 6.4-7.03 12.39-14.41 17.96-11.41 8.63-27.98 12.94-49.69 12.94h-27.77v-30.48H608c9.32-.55 16.49-2.68 21.51-6.37 5.01-3.69 7.52-11.52 7.52-23.49V358.94h41.55v157.01z" fill="url(#a)"/><linearGradient id="b" x1="825.453" x2="825.453" y1="336.753" y2="516.324" gradientUnits="userSpaceOnUse"><stop offset="0" stop-color="#2bc4f3"/><stop offset=".5" stop-color="#00aeee"/><stop offset="1" stop-color="#0095da"/></linearGradient><path d="M927.24 517.41c0 16.15-5.29 28.33-15.87 36.54-11.42 9.33-26.8 13.99-46.14 13.99h-72.24c-22.55 0-39.67-3.97-51.36-11.9-7.93-5.29-13.23-11.69-15.87-19.21-1.39-4.31-2.09-11.83-2.09-22.55V408.42c0-9.74 1.11-17.19 3.34-22.34 3.2-6.54 9.19-12.32 17.96-17.33 11.13-6.4 27.14-9.6 48.02-9.6h119.22v30.07H801.55c-13.09 0-22.2 1.6-27.35 4.8-5.99 3.62-8.98 10.02-8.98 19.21v99.8c0 9.33 3.27 16.01 9.81 20.04 5.15 3.06 13.71 4.59 25.68 4.59h53.87c21.02 0 31.53-7.79 31.53-23.38v-61.8h41.13v64.93z" fill="url(#b)"/><linearGradient id="c" x1="384.937" x2="364.047" y1="325.851" y2="508.441" gradientUnits="userSpaceOnUse"><stop offset="0" stop-color="#2bc4f3"/><stop offset=".5" stop-color="#00aeee"/><stop offset="1" stop-color="#0095da"/></linearGradient><path d="M375.18 425.53c4.51-.4 7.85-4.39 7.45-8.9-.42-4.49-4.39-7.83-8.9-7.41-4.49.4-7.83 4.37-7.43 8.86.42 4.53 4.39 7.85 8.88 7.45z" fill="url(#c)"/><linearGradient id="d" x1="452.385" x2="431.496" y1="333.567" y2="516.158" gradientUnits="userSpaceOnUse"><stop offset="0" stop-color="#2bc4f3"/><stop offset=".5" stop-color="#00aeee"/><stop offset="1" stop-color="#0095da"/></linearGradient><path d="M445.08 412.02c4.49-.4 7.83-4.37 7.43-8.88a8.2 8.2 0 0 0-8.9-7.43c-4.49.4-7.83 4.37-7.43 8.9.39 4.49 4.39 7.81 8.9 7.41z" fill="url(#d)"/><linearGradient id="e" x1="466.405" x2="445.516" y1="335.171" y2="517.761" gradientUnits="userSpaceOnUse"><stop offset="0" stop-color="#2bc4f3"/><stop offset=".5" stop-color="#00aeee"/><stop offset="1" stop-color="#0095da"/></linearGradient><path d="M451.29 481.83c4.49-.4 7.83-4.37 7.43-8.86-.4-4.53-4.39-7.85-8.88-7.45-4.51.4-7.85 4.39-7.45 8.9.4 4.49 4.42 7.8 8.9 7.41z" fill="url(#e)"/><linearGradient id="f" x1="431.902" x2="411.013" y1="331.224" y2="513.814" gradientUnits="userSpaceOnUse"><stop offset="0" stop-color="#2bc4f3"/><stop offset=".5" stop-color="#00aeee"/><stop offset="1" stop-color="#0095da"/></linearGradient><path d="M490.75 480.23h36.88c-2.97 23.67-13.3 45.08-28.6 61.83a162.55 162.55 0 0 1-7.43-.75c-18.04-2.43-36.99-7.36-56.3-14.68-4.37-1.66-8.55-3.34-12.6-5.07l20.52-29.45c2.8 1.12 5.91 1.64 9.11 1.33 10.91-.96 19.02-10.63 18.04-21.55-.96-10.91-10.66-19.02-21.57-18.04s-19.02 10.66-18.04 21.57c.3 3.48 1.5 6.64 3.32 9.35l-22.25 31.95c-1.24-.56-2.43-1.15-3.65-1.73-9.23-4.44-17.99-9.09-26.08-13.9-.19-.12-.35-.21-.54-.33L437 422.3c2.8 1.12 5.89 1.64 9.11 1.36 10.91-.96 19.02-10.63 18.04-21.55-.96-10.91-10.66-19.02-21.57-18.04s-19.02 10.66-18.04 21.57c.3 3.46 1.5 6.64 3.32 9.32l-56.3 79.71c-4.86-3.08-9.63-6.29-14.21-9.56-5.42-3.83-10.8-7.92-16.05-12.25l25.82-37.06a19.77 19.77 0 0 0 9.09 1.36c10.96-.98 19.02-10.66 18.06-21.57a19.89 19.89 0 0 0-21.57-18.02c-10.94.96-19 10.63-18.04 21.55.33 3.46 1.5 6.64 3.32 9.35L332.4 465.2c-10.31-9.28-18.74-18.32-25.47-27.37 12.53-48.49 56.58-84.32 108.99-84.32 42.51 0 79.53 23.58 98.66 58.35h-23.84v68.37z" fill="url(#f)"/><path d="M560.1 489.19c3.25 9.72 5.19 20.1 3.29 29.7-1.78 9.6-7.81 17.6-15.91 22.27-8.06 4.81-17.64 7.13-27.34 7.92-9.07.77-18.32.49-27.51-.58l-1.99-.23c-19.7-2.64-39.12-7.97-57.86-15.07a354.22 354.22 0 0 1-14.21-5.73c-3.62-1.57-7.24-3.2-10.82-4.91-.89-.4-1.75-.82-2.62-1.24-9.04-4.35-17.95-9.04-26.57-14.16l-1.08-.63c-3.37-1.99-6.71-4.02-9.98-6.12-4.84-3.06-9.56-6.24-14.21-9.56-5.49-3.86-10.84-7.95-16.03-12.22-2.52-2.06-5.02-4.16-7.48-6.33-.49-.42-.96-.86-1.45-1.29-8.41-7.5-16.38-15.56-23.37-24.23-4.95-6.12-9.42-12.57-13.18-19.35-4.67-8.41-7.83-17.57-8.25-26.59-.19-4.51.44-8.97 2.08-13.09 1.59-4.14 4.21-7.9 7.52-11.1 6.66-6.52 16.05-10.52 25.75-12.9 4.86-1.29 9.91-2.08 14.98-2.62 5.07-.65 10.19-.79 15.35-1-10.19-1.5-20.66-2.13-31.15-.84-10.42 1.19-21.13 4.35-30.17 11.29a38.87 38.87 0 0 0-10.87 13.32c-2.62 5.23-3.97 11.08-4.23 16.83-.3 5.8.54 11.47 1.89 16.9 1.36 5.42 3.34 10.59 5.66 15.54 4.58 9.96 10.63 18.93 17.25 27.34a176.62 176.62 0 0 0 5.73 6.82c.02 3.74.23 7.45.65 11.1 6.12 56.39 53.89 100.28 111.92 100.28 19.07 0 37.02-4.74 52.77-13.11 3.29-1.75 6.47-3.65 9.56-5.73 3.72.49 7.45.84 11.22 1.07 5.3.33 10.63.49 16.01.28 5.35-.12 10.73-.61 16.05-1.54 5.33-.89 10.63-2.24 15.8-4.16 5.14-1.92 10.17-4.37 14.68-7.74 9.04-6.61 15.4-17.34 15.87-28.32.71-10.97-2.86-21.25-7.75-30.27zm-62.34-70.3h54.33v54.33h-54.33z" fill="gray"/><linearGradient id="g" x1="566.645" x2="545.756" y1="346.64" y2="529.23" gradientUnits="userSpaceOnUse"><stop offset="0" stop-color="#2bc4f3"/><stop offset=".5" stop-color="#00aeee"/><stop offset="1" stop-color="#0095da"/></linearGradient><path d="M544.5 377.99h33.3v33.3h-33.3z" fill="url(#g)"/><linearGradient id="h" x1="531.364" x2="510.474" y1="342.603" y2="525.193" gradientUnits="userSpaceOnUse"><stop offset="0" stop-color="#2bc4f3"/><stop offset=".5" stop-color="#00aeee"/><stop offset="1" stop-color="#0095da"/></linearGradient><path d="M514.12 348.19h29.8v29.8h-29.8z" fill="url(#h)"/></svg>