<svg xmlns="http://www.w3.org/2000/svg" xmlns:xlink="http://www.w3.org/1999/xlink" width="847.997" height="727.305"><path fill="#00b0ff" d="M651.568 506.704a7.006 7.006 0 0 1-6.98-6.548l-1.04-15.874a7.01 7.01 0 0 1 6.533-7.449l124.363-8.144a14.96 14.96 0 1 1 1.955 29.856l-124.363 8.144q-.235.015-.468.015z"/><g fill="#2f2e41"><path d="M676.091 508.751a7.015 7.015 0 0 1-6.998-6.745l-.886-23.709a7.007 7.007 0 0 1 6.74-7.262l102.267-3.822a7.01 7.01 0 0 1 7.262 6.739l.886 23.709a7.007 7.007 0 0 1-6.74 7.262l-102.267 3.822-.265.005z"/><use xlink:href="#a"/><use xlink:href="#a" x="-38"/></g><circle cx="771.771" cy="387.379" r="54.967" fill="#00b0ff"/><path d="M742.018 406.146a13.04 13.04 0 0 1-4.76-2.794 8.766 8.766 0 0 1-2.562-6.94 5.9 5.9 0 0 1 2.622-4.539c1.966-1.261 4.595-1.265 7.271-.085l-.101-21.458 2.155-.01.119 25.227-1.661-1.045c-1.926-1.209-4.676-2.061-6.62-.814a3.785 3.785 0 0 0-1.64 2.93 6.623 6.623 0 0 0 1.905 5.174c2.38 2.274 5.853 2.985 9.813 3.62l-.342 2.128a35.53 35.53 0 0 1-6.2-1.394zm-20.032-34.761.282-2.136 11.51 1.52-.282 2.136zm36.327 4.794.282-2.136 11.51 1.52-.282 2.136zm49.301 247.11h-82.635a9.18 9.18 0 0 1-8.894-6.962 9 9 0 0 1-.121-3.32l24.126-134.176a27.58 27.58 0 0 1 27.128-22.599 59.61 59.61 0 0 1 59.612 59.612v88.229a19.22 19.22 0 0 1-5.628 13.588 19.215 19.215 0 0 1-13.588 5.628z" fill="#2f2e41"/><path fill="#00b0ff" d="M791.679 611.312a7.015 7.015 0 0 1-6.565 3.875l-15.894-.67a7.005 7.005 0 0 1-6.704-7.295l5.245-124.519a14.96 14.96 0 0 1 29.892 1.259l-5.245 124.519a6.97 6.97 0 0 1-.729 2.83z"/><path d="M799.814 578.296a7.015 7.015 0 0 1-6.565 3.875l-27.147-1.144a7.012 7.012 0 0 1-6.704-7.294l4.307-102.248a7.004 7.004 0 0 1 7.294-6.704l27.147 1.143a7.005 7.005 0 0 1 6.704 7.295l-4.307 102.248a6.98 6.98 0 0 1-.729 2.829zm-31.098-226.621c-11.857 4.676-29.772 9.646-37.589-4.236a22.685 22.685 0 0 1-1.286-18.638c2.361-6.549 7.383-11.944 13.106-15.757 10.721-7.142 24.285-9.086 36.77-6.326a50.17 50.17 0 0 1 17.547 7.541c6.04 4.14 10.292 9.729 14.566 15.578 4.37 5.98 9.318 12.011 16.499 14.63 5.871 2.142 13.233 1.048 17.387-3.935a12.18 12.18 0 0 0 2.194-3.935c.623-1.832-2.273-2.618-2.893-.798-2.183 6.414-10.218 7.852-15.891 5.775-7.489-2.741-12.22-9.862-16.711-16.01-4.294-5.877-9.041-11.052-15.243-14.95a52.93 52.93 0 0 0-18.205-7.107c-12.998-2.473-26.997-.281-38.013 7.27a36.72 36.72 0 0 0-13.669 16.337 25.89 25.89 0 0 0 .179 19.644 20.85 20.85 0 0 0 15.097 12.303c7.264 1.472 14.81-.222 21.705-2.555a113.67 113.67 0 0 0 5.247-1.938c1.775-.7 1.002-3.603-.798-2.893z" fill="#2f2e41"/><path fill="#f2f2f2" d="M48.125 0h376.318c26.566.03 48.095 21.559 48.125 48.125v205.876c-.03 26.566-21.559 48.095-48.125 48.125H48.125C21.559 302.096.03 280.567 0 254.001V48.125C.03 21.559 21.559.03 48.125 0z"/><path fill="#fff" d="M48.125 13.854h376.319c18.919.021 34.25 15.352 34.271 34.271v205.876c-.021 18.919-15.352 34.25-34.271 34.271H48.125c-18.918-.021-34.249-15.353-34.27-34.271V48.125c.021-18.918 15.352-34.25 34.27-34.271z"/><g fill="#f2f2f2"><path d="M51.797 375.837a8.63 8.63 0 0 1-3.307-.669 8.37 8.37 0 0 1-5.247-7.853v-71.17l94.883-3.192-80.372 80.373a8.38 8.38 0 0 1-5.956 2.511z"/><rect width="324" height="41.028" x="73.826" y="65.063" rx="20.514"/><rect width="324" height="41.028" x="74.284" y="130.549" rx="20.514"/><rect width="324" height="41.028" x="74.743" y="196.035" rx="20.514"/></g><path fill="#e6e6e6" d="M642.36 105H266.042c-26.566.03-48.095 21.559-48.125 48.125v205.876c.03 26.566 21.559 48.095 48.125 48.125H642.36c26.566-.03 48.095-21.559 48.125-48.125V153.125c-.03-26.566-21.559-48.095-48.125-48.125z"/><path fill="#fff" d="M642.361 118.854H266.042c-18.919.021-34.25 15.352-34.271 34.271v205.876c.021 18.919 15.352 34.25 34.271 34.271h376.319c18.918-.021 34.249-15.353 34.271-34.271V153.125c-.021-18.918-15.352-34.25-34.271-34.271z"/><path fill="#e6e6e6" d="m613.732 478.325-80.372-80.373 94.883 3.192v71.17a8.37 8.37 0 0 1-5.247 7.853 8.63 8.63 0 0 1-3.307.669 8.385 8.385 0 0 1-5.956-2.511z"/><g fill="#00b0ff"><circle cx="371.201" cy="256.063" r="26"/><circle cx="454.201" cy="256.063" r="26"/><circle cx="537.201" cy="256.063" r="26"/></g><defs><path id="a" d="M795.932 727.305h-15.908a7.014 7.014 0 0 1-7.006-7.006V587.716a7.014 7.014 0 0 1 7.006-7.006h15.908a7.014 7.014 0 0 1 7.006 7.006V720.3a7.014 7.014 0 0 1-7.006 7.006z"/></defs></svg>