<svg xmlns="http://www.w3.org/2000/svg" xmlns:xlink="http://www.w3.org/1999/xlink" width="855.157" height="581.907"><style>.K{fill:#e6e6e6}.L{fill:#3f3d56}.M{fill:#00b0ff}.N{fill:#a0616a}.O{fill:#2f2e41}</style><path d="M519.741 326.238a5.5 5.5 0 0 1 5.5 5.5v53.206h105.5a5.5 5.5 0 1 1 0 11h-105.5v184h-11V331.738a5.5 5.5 0 0 1 5.5-5.5z" class="K"/><g class="L"><use xlink:href="#A"/><use xlink:href="#A" x="120.63" y="-.56"/><path d="M157.282 411.629a4.33 4.33 0 0 1 1.595-8.308l225.468-6.226a4.33 4.33 0 0 1 4.449 4.208 4.335 4.335 0 0 1-4.209 4.448l-225.468 6.226c-.63.019-1.256-.1-1.834-.349z"/></g><path d="m176.042 338.768 64.449-1.78 6.009 217.597-64.449 1.78z" class="K"/><path fill="#ccc" d="m242.126 333.079-12.389 33.749.011 153.759 15.096 4.329-2.718-191.837z"/><g class="L"><use xlink:href="#B"/><path d="M176.878 428.881a8.51 8.51 0 0 1-8.731-8.262l-.662-23.991a8.5 8.5 0 1 1 16.994-.469l.662 23.991a8.51 8.51 0 0 1-8.262 8.731zm16.355-89.597-.305-15.855 4.158-.103.305 15.804 3.769 230.346-4.159.115"/></g><path d="m247.881 376.361-74.739 2.064c-7.139-8.705-7.787-45.793 7.111-52.851l5.842-9.92 45.043-2.199 5.264 10.445c7.411 6.306 11.232 43.162 11.479 52.461z" class="K"/><path d="m219.751 358.573-18.9.522c-3.647.101-6.748-4.631-6.911-10.546s2.672-10.811 6.319-10.912l18.9-.522c3.647-.101 6.748 4.631 6.911 10.546s-2.672 10.811-6.319 10.912z" class="M"/><path d="m183.151 465.568-38.959 27.52-6.806 62.05 45.448-15.185.317-74.385zm117.302-129.465 64.449-1.78 6.009 217.597-64.449 1.78z" class="K"/><path fill="#ccc" d="m301.996 333.806 13.261 33.416 3.979 153.708-14.979 4.719-2.261-191.843z"/><ellipse cx="397.132" cy="262.584" rx="8.447" ry="11.327" class="K"/><g class="L"><use xlink:href="#B" x="123.152" y="-2.63"/><path d="m343.567 344.247-.305-15.855 4.158-.104.305 15.805 3.769 230.346-4.159.115"/></g><path d="m371.034 373.731-74.738 2.064c-1.303-7.877.383-44.633 7.111-52.851l5.842-9.92 45.043-2.199 5.264 10.445c13.299 1.084 17.95 37.203 11.479 52.461z" class="K"/><path d="m342.995 359.254-18.9.522c-3.647.101-6.768-5.374-6.957-12.202s2.626-12.466 6.273-12.567l18.9-.522c3.647-.101 6.768 5.374 6.957 12.202s-2.626 12.466-6.273 12.567z" class="M"/><path d="m368.086 449.662 37.663 29.268 3.966 62.297-44.706-17.244 3.077-74.321z" class="K"/><path d="M357.568 161.121c-40.413 0-86.857-44.846-127.949-23.539-124.415 64.514-107.289-43.44-143.032-83.589l1.173-2.354c27.059 103.218 51.543 267.692 142.399 83.205 22.759-46.214 97.455 25.22 141.423 23.113l.076 2.829q-6.965.336-14.091.335zm96.997 6.346c-32.216 24.4-96.316 16.691-116.208 58.487-60.228 126.545-111.754 30.148-164.488 19.724l-.486-2.585c52.79 4.378 109.414-2.415 163.751-19.648 49.104-15.571 92.915-38.736 126.692-66.962l1.769 2.209q-5.349 4.473-11.031 8.774z" fill="#f2f2f2"/><g class="K"><ellipse cx="104.132" cy="150.584" rx="8.447" ry="11.327"/><ellipse cx="366.132" cy="58.584" rx="8.447" ry="11.327"/><path d="M181.471 207.629c-3.862 2.573-7.815-3.551-3.878-6.01 3.862-2.573 7.815 3.551 3.878 6.01zm143-201c-3.862 2.573-7.815-3.551-3.878-6.01 3.862-2.573 7.815 3.551 3.878 6.01zm84.278 119.172-2.457-.539.538-2.458-1.638-.359-.539 2.458-2.457-.538-.359 1.638 2.457.539-.538 2.457 1.638.359.539-2.458 2.457.539.359-1.638z"/></g><circle cx="183.535" cy="32.737" r="10.702" fill="#ff6584"/><path d="M261.816 19.19c-12.057.342-21.257 21.209-21.036 29.352l.407 14.742 43.659-1.206-.407-14.742c-.229-8.143-10.565-28.47-22.623-28.146zm25.997 558.219-19.832.548a13.81 13.81 0 0 1-8.486-2.379c-2.154-1.602-3.142-3.768-2.708-5.943l3.903-19.613c.736-3.7 5.27-6.497 10.78-6.649l10.952-.302c5.51-.152 10.192 2.39 11.13 6.044l4.979 19.368c.552 2.148-.314 4.365-2.376 6.083a13.81 13.81 0 0 1-8.342 2.844z" class="L"/><path d="m232.207 114.816 64.449-1.78 12.146 439.848-64.449 1.78z" class="K"/><path d="m270.868 325.949-.305-15.855 4.158-.103.305 15.804 3.769 230.346-4.159.115" class="L"/><g class="K"><path d="m309.345 153.292-87.326 2.411c-1.523-9.203.447-52.15 8.308-61.752l2.154-11.462 60.297-1.665 3.155 11.171c8.659 7.368 13.123 50.431 13.412 61.297z"/><path d="m294.685 82.176-62.223 1.718c-2.297.063-4.193-1.142-4.236-2.693a1.95 1.95 0 0 1 .097-.658l9.665-29.775c.414-1.275 2.061-2.211 3.984-2.264l41.264-1.139c1.923-.053 3.619.791 4.103 2.041l11.293 29.196c.578 1.493-.756 3.047-2.98 3.471a6.08 6.08 0 0 1-.969.104z"/></g><path d="M238.6 323.926a7.665 7.665 0 0 1-1.581-.915 5.6 5.6 0 0 1-2.379-4.321l-2.261-81.878c-.093-3.389 3.225-6.241 7.398-6.356l55.703-1.538c4.173-.116 7.643 2.549 7.737 5.938l2.261 81.878a5.6 5.6 0 0 1-2.137 4.446 8.506 8.506 0 0 1-5.261 1.91l-55.702 1.538a8.92 8.92 0 0 1-3.777-.701z" class="L"/><path d="m274.253 76.907-18.9.522c-3.647.101-6.731-4.02-6.874-9.184s2.709-9.449 6.356-9.55l18.9-.522c3.647-.101 6.731 4.02 6.874 9.184s-2.709 9.449-6.356 9.55z" class="M"/><path d="M721.009 562.528h-22V402.651c18.402-1.32 32.233-6.955 32.233-13.707 0-7.732-18.132-14-40.5-14s-40.5 6.268-40.5 14c0 6.818 14.1 12.494 32.767 13.742v159.842h-22a8 8 0 1 0 0 16h60a8 8 0 1 0 0-16z" class="K"/><path d="m676.847 481.363-7.227 7.875-33.814-24.126 10.665-11.623 30.376 27.874z" class="N"/><path d="M658.368 502.148a13.32 13.32 0 0 0 4.336 9.307l.318.296 9.478-10.329 13.821-15.064-10.203-9.367-1.842 2.012-.192.207-9.182 4.343-1.946.925-.333.155-.732 7.865v.007a13.284 13.284 0 0 0-3.522 9.64z" class="O"/><path d="m714.287 559.924-10.227 3.107-16.85-37.968 15.094-4.585 11.983 39.446z" class="N"/><path d="m686.801 578.643.126.422 32.976-10.018-4.025-13.251-2.604.792-.274.081-12.26-1.125-.363-.03-4.639 6.4c-7.087 2.152-11.088 9.641-8.938 16.728zm-56.844-217.515s-65.294 63.042-24.016 82.556h12.758a84.516 84.516 0 0 1 12.611-25.108c1.205-1.577 5.721-1.257 6.975-2.794 7.657-9.387 15.958-17.448 21.691-17.128l-1.372 43.558-2.22 15.537c-1.165 8.032 31.727 78.161 31.727 78.161l20.674-8.125s-21.54-57.762-21.792-66.089l17.262-91.562z" class="O"/><path d="M624.512 364.237a3.89 3.89 0 0 0 1.273 1.154 8.99 8.99 0 0 0 2.671.991c14.701 3.337 62.726 10.255 75.192 6.955 1.532-.4 2.53-.962 2.856-1.702 1.043-2.338.91-12.215.296-24.142-.111-2.234-2.575-4.654-2.723-6.992-.104-1.753 2.109-3.403 1.99-5.186l-2.567-32.118-.747-8.116 7.584-47.817-.355-.585-.4-.2-24.453-12.104-1.332-3.403a5.267 5.267 0 0 0-4.876-3.337l-16.107-.067a5.25 5.25 0 0 0-4.284 2.175l-4.365 6.045-28.855 18.497.111.34 13.54 41.203.067 3.211v.007l.503 25.821-1.398 3.5 1.576 5.741s-.725 6.711-4.609 11.697c-3.522 4.528-8.005 9.248-10.033 13.081v.007c-1.125 2.116-1.502 3.951-.555 5.342z" class="M"/><path d="m602.806 439.939 3.49 4.41s32.098 22.456 33.2 24.555l5.073 4.8 12.274-13.12-6.383-8a50.12 50.12 0 0 0-19.221-14.716l-9.782-8.679z" class="O"/><path d="m718.425 379.131-5.845-56.578-1.543-23.286 16.36-2.958s-.648 16.65 1.495 26.044c2.115 9.27.281 55.535.15 56.773a7.96 7.96 0 1 1-10.617.005z" class="N"/><path d="m698.943 293.447 4.558 9.751 1.591 3.396 4.284 22.433 2.138 2.271 1.842 7.332.866-.178 15.611-3.233 4.55-.94a8.65 8.65 0 0 0-1.568-10.824c-.311-.281-.57-.555-.562-.814.259-15.604-.695-44.096-9.315-55.823-2.738-3.722-4.38-7.428-6.77-10.018-.007-.007-.007-.015-.015-.015l-5.815-9.522-.355-.585-.4-.2z" class="M"/><circle cx="672.128" cy="202.131" r="21.431" class="N"/><path d="M697.575 197.52c.628-3.601 1.117-8.27-.681-12.42-1.519-3.493-5.32-6.768-9.545-6.326a4.4 4.4 0 0 0-1.373-4.399 11.553 11.553 0 0 0-4.688-2.204c-3.971-1.167-8.084-2.377-12.332-2.4-4.767-.026-8.99 1.607-11.58 4.486l-.063.093-.776 1.854a1.87 1.87 0 0 1-1.149 1.057c-.52.172-1.09.102-1.553-.19-.511-.314-1.15-.335-1.681-.055s-.873.821-.9 1.42l-.041.791-1.112-.443a1.69 1.69 0 0 0-2.299 1.851l.148.941a1.81 1.81 0 0 0-1.38.311 1.654 1.654 0 0 0-.589 1.86 15.4 15.4 0 0 0 4.284 6.4 12.8 12.8 0 0 0 2.908 1.977q.329.166.685.315a76.25 76.25 0 0 0 26.963 6.108 15.654 15.654 0 0 0-1.674 5.372 5.874 5.874 0 0 0 2.514 5.541 7.4 7.4 0 0 0 1.204.552 7.94 7.94 0 0 1 1.155.534 3.6 3.6 0 0 1-.148 6.243s1.595 1.947 1.85 1.914a4.98 4.98 0 0 0 2.625-1.553c4.641-4.507 7.746-11.107 9.229-19.63z" class="O"/><path fill="#f2f2f2" d="m791.398 528.793.931-20.943a67.64 67.64 0 0 1 31.55-7.986c-15.153 12.389-13.259 36.269-23.532 52.929a40.683 40.683 0 0 1-29.835 18.801l-12.68 7.764a68.18 68.18 0 0 1 14.37-55.246 65.833 65.833 0 0 1 12.103-11.246c3.037 8.008 7.094 15.927 7.094 15.927z"/><path fill="#ccc" d="M855.157 580.354a1.55 1.55 0 0 1-1.553 1.553H1.553a1.553 1.553 0 1 1 0-3.106h852.05a1.55 1.55 0 0 1 1.553 1.553z"/><path d="M366.498 423.566a8.51 8.51 0 0 1-8.731-8.262l-.662-23.991a8.5 8.5 0 0 1 16.994-.469l.662 23.991a8.51 8.51 0 0 1-8.262 8.731z" class="L"/><g fill="#ccc"><path d="M741.354 511.248q-19.368 0-42.457-1.464c-79.614-5.056-182.738-22.633-290.376-49.492s-206.93-59.794-279.585-92.734c-35.393-16.047-62.556-31.236-80.735-45.147-19.247-14.727-27.666-27.564-25.024-38.153 5.148-20.629 50.731-25.142 88.064-25.295l.013 3c-51.268.21-81.514 8.387-85.166 23.022-4.652 18.64 33.287 47.741 104.087 79.841 72.496 32.868 171.605 65.739 279.073 92.557s210.401 44.363 289.84 49.408c77.579 4.928 124.743-2.937 129.395-21.578 3.862-15.477-21.598-38.275-71.689-64.198l1.379-2.664c36.397 18.836 78.646 45.852 73.222 67.589-2.643 10.589-16.105 17.965-40.015 21.923-13.629 2.256-30.37 3.387-50.024 3.387z"/><path d="M56.059 491.595c-10.246 0-16.907-2.546-19.855-7.607-5.814-9.98 3.923-27.493 28.941-52.051l2.102 2.141c-23.239 22.813-33.343 40.001-28.451 48.4 3.096 5.313 12.309 7.217 26.648 5.504 14.235-1.699 33.101-6.765 56.072-15.055 47.291-17.067 106.623-45.856 167.065-81.064s114.75-72.616 152.927-105.335c7.333-6.286 13.987-12.333 19.779-17.971a196.96 196.96 0 0 0 20.976-23.377c8.563-11.627 11.453-20.581 8.358-25.895-5.17-8.875-26.888-8.04-61.156 2.353l-.87-2.871c36.766-11.149 58.507-11.483 64.619-.992 3.797 6.519.926 16.337-8.534 29.184a199.905 199.905 0 0 1-21.299 23.748c-5.837 5.683-12.539 11.772-19.92 18.1-38.31 32.833-92.777 70.354-153.369 105.649s-120.1 64.168-167.556 81.295c-23.185 8.367-42.273 13.485-56.735 15.211a82.7 82.7 0 0 1-9.74.635z"/></g><path d="m603.602 368.423-53.771-1.01c-.369-1.293-12.75 14.573-13.051 14.671a1.81 1.81 0 0 0 .605 2.908c.728.442 64.932-.746 65.71-.591a1.79 1.79 0 0 0 1.594-1.038l.429-.961c.045-1.644.583-10.048.1-11.485a1.78 1.78 0 0 0-1.615-2.494z" class="K"/><path d="M605.117 382.4c-.377.905-.859 2.043-2.023 2.001l-65.032.73a1.793 1.793 0 0 1-1.565-2.633z" opacity=".17"/><path d="M550.135 367.218c-.7-1.211-18.086-87.238-19.537-87.958l-11.87-14.521-1.061-.798c-1.475-.81-5.014-.262-4.696 1.991 2.789 13.37 20.726 89.518 21.119 101.39l2.159 15.124a1.863 1.863 0 0 0 2.299 1.53 3.58 3.58 0 0 0 2.877-2.079c.162-.534 9.522-14.37 8.709-14.68z" class="K"/><path d="m518.725 264.74 22.703 117.161c-.759 1.922-4.312 3.268-5.139.747-.014-.003-23.291-116.644-23.315-116.713-.248-2.807 4.39-2.896 5.751-1.195z" opacity=".17"/><path d="m519.409 269.531 11.53 16.072 12.942 61.465-6.016 5.248-18.456-82.785z" class="M"/><g class="O"><path d="m596.159 376.71 3.19.13a12.54 12.54 0 0 1 .46-2.76c.48-2.28.91-4.99-1.08-4.98-1.35-.13-1.81 1.58-2.05 3.44a26.32 26.32 0 0 1-.52 4.17zm-18.3-4.29 2.15.08 1.04.04c-.02-1.14.51-3.49-.78-4.07a1.6 1.6 0 0 0-.65-.13c-1.21-.07-1.57.85-1.68 1.91-.07.64-.04 1.32-.06 1.85a3.23 3.23 0 0 1-.02.32zm-6.37-.26 2.16.09 1.03.04c-.02-1.31.67-4.17-1.43-4.21-1.94-.11-1.69 2.36-1.74 3.76a3.23 3.23 0 0 1-.02.32zm-6.37-.25 2.15.08 1.04.04c-.02-1.3.67-4.16-1.43-4.2-1.94-.12-1.69 2.35-1.74 3.76a3.23 3.23 0 0 1-.02.32zm-6.37-.26 2.16.09 1.03.04c-.02-1.31.67-4.16-1.43-4.21-1.94-.11-1.69 2.36-1.74 3.76a3.23 3.23 0 0 1-.02.32zm-6.37-.25 2.15.08 1.04.04c-.02-1.2.56-3.71-.98-4.14h-.01a1.49 1.49 0 0 0-.44-.06 1.51 1.51 0 0 0-.54.05h-.01c-1.34.35-1.15 2.45-1.19 3.71a3.23 3.23 0 0 1-.02.32zm37.35-.68 3.19.13.01-.4a13.33 13.33 0 0 0 .04-2.29c-.11-.84-.47-1.5-1.48-1.52-1.03-.06-1.44.6-1.6 1.45a3.15 3.15 0 0 0-.08.44v.01c-.08.78-.03 1.62-.08 2.18zm-6.37-.26 3.19.13a23.28 23.28 0 0 0 .06-2.58c-.09-.88-.44-1.6-1.49-1.62-1.06-.07-1.47.65-1.63 1.54-.15.86-.07 1.89-.13 2.53z"/><path d="m576.989 370.21.95.04 2.24.09c-.01-.48.08-1.18.09-1.87a4.14 4.14 0 0 0-.02-.62c-.08-.93-.41-1.7-1.5-1.72-1.11-.06-1.5.71-1.64 1.65-.14.84-.06 1.81-.12 2.43zm12.8 6.25 3.19.12c-.01-1.3.67-4.16-1.43-4.2-2.1-.13-1.64 2.77-1.76 4.08zm-6.37-.26 3.19.13c-.01-1.31.67-4.17-1.43-4.21-2.1-.12-1.64 2.78-1.76 4.08zm-6.37-.25 3.19.12c-.01-.93.34-2.65-.23-3.57a1.32 1.32 0 0 0-1.2-.63 1.406 1.406 0 0 0-.93.23c-1.02.67-.73 2.79-.83 3.85zm-6.37-.26 3.19.13c-.01-.93.33-2.64-.22-3.57a1.32 1.32 0 0 0-1.21-.64 1.39 1.39 0 0 0-.93.23c-1.02.69-.73 2.8-.83 3.85zm-6.37-.25 3.19.12c-.01-.93.34-2.65-.23-3.57a1.32 1.32 0 0 0-1.2-.63 1.404 1.404 0 0 0-.93.23c-1.02.67-.73 2.79-.83 3.85zm-6.37-.26 3.19.13c-.01-.93.33-2.64-.22-3.57a1.31 1.31 0 0 0-1.21-.64 1.39 1.39 0 0 0-.93.23c-1.02.69-.73 2.8-.83 3.85zm-6.37-.25 3.19.12c-.01-.93.33-2.64-.23-3.57a1.31 1.31 0 0 0-1.2-.63 1.404 1.404 0 0 0-.93.23c-1.02.68-.73 2.79-.83 3.85z"/></g><path d="m587.595 365.686 24.313-51.421 9.193-21.45-14.448-8.227s-4.921 15.919-10.064 24.067c-5.075 8.04-18.718 52.287-19.006 53.497a7.96 7.96 0 1 0 10.012 3.533z" class="N"/><path d="m587.447 318.079 18.388 11.093 4.17-6.303 2.777-1.433 11.494-19.737 10.162-10.354 13.427-42.919-17.47 2.621-.023.007c-3.112 1.651-5.896 4.602-9.713 7.203-12.026 8.196-22.395 34.752-27.336 49.559-.081.243-.414.412-.8.578a8.652 8.652 0 0 0-5.077 9.685z" class="M"/><defs><path id="A" d="m226.147 578.694-19.832.548a13.81 13.81 0 0 1-8.486-2.379c-2.154-1.602-3.142-3.768-2.708-5.943l3.903-19.613c.735-3.7 5.27-6.497 10.78-6.649l10.952-.302c5.51-.152 10.192 2.39 11.13 6.044l4.979 19.368c.552 2.148-.314 4.365-2.376 6.083a13.81 13.81 0 0 1-8.342 2.844z"/><path id="B" d="M207.931 280.122c-12.057.342-21.257 21.209-21.036 29.352l.407 14.742 43.659-1.206-.407-14.742c-.229-8.143-10.566-28.47-22.623-28.146z"/></defs></svg>