<svg xmlns="http://www.w3.org/2000/svg" width="1176.606" height="873.979"><path fill="#f2f2f2" d="M1083.967 212.452C950.424 26.622 668.322-48.759 390.883 32.428 244.21 75.349 102.79 161.348 32.705 327.869-92.578 625.544 170.47 720.614 342.475 750.914c83.172 14.651 161.507 39.263 233.089 72.771 128.783 60.284 356.739 113.702 528.632-137.409 124.589-182.006 68.722-350.042-20.23-473.823z"/><g fill="#3f3d56"><path d="M309.732 249.217a34.393 34.393 0 0 0-2.248-8.605 3.894 3.894 0 0 0-1.98-2.439 4.08 4.08 0 0 0-1.965-.022l-10.087 1.543a3.876 3.876 0 0 0-2.302.894c-1.314 1.382-.02 3.607-.06 5.513-.045 2.143-1.95 3.883-4.015 4.459a15.18 15.18 0 0 1-6.38-.079l-14.105-2.192a23.257 23.257 0 0 0 10.671-7.121c1.856-2.199 2.844-6.304.161-7.345a6.596 6.596 0 0 0-2.45-.197c-6.391.05-11.419-5.286-17.402-7.533a19.24 19.24 0 0 0-21.655 6.455l7.514.362a3.33 3.33 0 0 1 2.001.534c1.647 1.353-.401 3.952-.169 6.07.301 2.752 3.956 3.34 6.711 3.618s6.25 2.517 4.925 4.948c-13.847 4.769-27.937-9.323-42.479-7.588-3.68.439-7.156 1.885-10.749 2.794-21.951 5.554-44.644-9.264-67.068-6.126a85.173 85.173 0 0 0-14.64 3.861c-3.052 1.002-6.235 2.085-8.453 4.409s-3.061 6.298-.961 8.729a49.13 49.13 0 0 1-17.216-1.636 9.646 9.646 0 0 1 4.959 8.5 102.123 102.123 0 0 0-26.167 7.979 44.13 44.13 0 0 0 5.416 7.215l-11.445 7.353c3.867.974 5.866 6.247 3.617 9.54 4.009-1.784 6.494-6.398 10.782-7.333 2.809-.613 5.667.536 8.331 1.616s5.593 2.126 8.352 1.316 4.793-4.387 3.04-6.666a142.72 142.72 0 0 1 36.253-5.664 4.545 4.545 0 0 1 2.746.521c1.598 1.109 1.178 3.504 1.092 5.447s1.429 4.497 3.165 3.621c-2.043 1.772-.297 5.108 1.664 6.971s4.323 4.434 3.123 6.858c-.313.633-.845 1.139-1.146 1.777-.89 1.884.523 4.081 2.189 5.332s3.707 2.126 4.864 3.858.632 4.765-1.438 5.007l-5.882-7.469a15.31 15.31 0 0 0-3.974 7.53c6.238 5.099 7.176 15.478 1.954 21.613-2.669 3.135-6.464 5.04-9.776 7.486s-6.377 5.928-6.369 10.045c.014 7.113-.567 13.721 2.099 20.316a313.054 313.054 0 0 0 16.99 35.447c1.681 3.006 3.853 6.301 7.258 6.819q-6.455-15.714-11.621-31.917c2.243.009 4.836.187 6.151 2.004 1.089 1.505.855 3.551 1.193 5.378a16.66 16.66 0 0 0 2.124 4.994l20.55 36.605c1.704 3.034 3.658 6.292 6.913 7.521 2.082.786 4.49.638 6.406 1.769 1.502.887 2.513 2.46 4.044 3.296 4.329 2.361 10.349-2.167 14.394.652 1.157.806 1.893 2.087 2.958 3.01 3.736 3.236 9.865 1.071 14.179 3.485 2.78 1.556 4.22 4.667 5.703 7.486 3.714 7.062 9.723 13.981 17.683 14.543 2.5.177 5.054-.297 7.498.259s4.85 2.689 4.457 5.164c-.673 4.244 1.424 8.891.861 13.151-1.026 7.759-12.032 11.169-12.978 18.939-.207 1.701.117 3.457-.288 5.122-.496 2.041-2.029 3.702-2.574 5.731-1.032 3.844 1.722 7.67 4.748 10.256s6.635 4.816 8.289 8.437c1.748 3.827.89 8.289 1.458 12.457 1.241 9.1 9.102 15.847 17.191 20.197 2.465 1.325 5.111 2.608 6.706 4.908 2.082 3.001 1.875 6.957 2.57 10.543 1.703 8.782 9.095 16.017 9.305 24.96.149 6.356-3.384 12.122-5.495 18.12a42.26 42.26 0 0 0 3.451 35.046c1.579 2.666 3.467 5.18 4.584 8.07 1.993 5.158 1.346 11.02 3.184 16.235 2.43 6.895 9.106 12.589 8.467 19.872 3.031 6.294 9.724 9.387 16.454 11.26l12.062 3.357c2.309.643 4.723 1.291 7.074.825s4.596-2.418 4.535-4.815c-5.915-1.334-12.019-2.752-16.895-6.357s-8.216-10.023-6.366-15.797c.858-2.678 2.683-5.769.948-7.982-.993-1.267-2.81-1.598-3.931-2.753-1.748-1.803-1.147-4.831.109-7.005s3.073-4.116 3.579-6.576a6.86 6.86 0 0 0-3.216-7.138 17.047 17.047 0 0 0 5.97-3.831c1.57-1.793 2.295-4.557 1.06-6.595 3.668.465 7.997.693 10.405-2.113 1.923-2.24 1.79-5.59 1.031-8.442s-2.044-5.624-2.084-8.575c8.46.401 16.939.113 25.353-.86a16.44 16.44 0 0 0-7.708-9.654c3.811-.645 7.282-5.207 8.486-8.879s.897-7.673.153-11.465a6.15 6.15 0 0 1-.114-3.004c.429-1.368 1.772-2.202 3.015-2.916l18.914-10.863a11.03 11.03 0 0 0 3.025-2.233c1.982-2.328 1.688-5.841.673-8.725s-2.64-5.595-3.031-8.627c-1.169-9.068 8.538-15.574 11.813-24.109 1.286-3.35 1.548-6.991 1.796-10.57.267-3.844.287-8.31-2.665-10.787-2.829-2.375-7.251-1.845-10.211-4.054-2.714-2.025-3.651-5.958-6.616-7.594-2.693-1.486-6.07-.541-9.065-1.239-5.274-1.23-8.592-7.308-13.978-7.871-3.039-.318-6.478 1.168-8.969-.602-2.195-1.559-2.283-4.694-2.7-7.353a20.536 20.536 0 0 0-16.575-16.628c-3.133-.502-6.544-.312-9.209-2.033-2.699-1.744-3.937-5.008-6.057-7.422-3.417-3.891-8.798-5.274-13.84-6.459l-20.506-4.821c-3.64-.856-8.332-1.31-10.286 1.879a14.74 14.74 0 0 0-1.217 3.827 11.85 11.85 0 0 1-11.144 8.388 13.18 13.18 0 0 0-7.772-6.013c-2.079-.579-4.305-.644-6.288-1.496a8.835 8.835 0 0 1-3.833-12.253 10.994 10.994 0 0 0-1.879-13.225c-3.487-3.131-8.532-3.887-13.207-3.574-1.225-2.672.823-5.687 3.03-7.629s4.886-3.851 5.366-6.751c.756-4.561-5.064-8.026-9.483-6.666s-7.24 5.652-9.104 9.883c-1.07 2.428-1.979 4.984-3.667 7.031s-4.405 3.513-6.975 2.856c-3.639-.93-5.044-5.253-5.849-8.921-1.081-4.922-2.167-9.912-1.941-14.946s1.923-10.203 5.635-13.61c6.049-5.553 15.328-5.009 23.491-4.123-1.929-2.173-1.452-5.835.612-7.881a8.96 8.96 0 0 1 8.121-1.995 11.19 11.19 0 0 1 6.291 3.762c2.32 2.828 2.979 6.647 4.733 9.857s5.696 5.948 8.923 4.226c2.787-1.488 3.23-5.353 2.536-8.435s-2.167-6.08-1.916-9.229c.479-6.01 6.709-9.627 12.206-12.102s11.792-5.804 12.663-11.769a10.73 10.73 0 0 1 .652-3.42 6.71 6.71 0 0 1 2.461-2.315c16.044-10.603 32.355-21.335 50.692-27.129.954-.301 1.066.034 2.038-.203 1.361-.786.459-2.962-.846-3.838s-3.048-1.549-3.379-3.085c-.243-1.129.422-2.238.595-3.381.425-2.807-2.933-5.399-5.541-4.276-1.473-1.951 1.442-4.217 3.798-4.866a103.15 103.15 0 0 1 21.67-3.54 3.91 3.91 0 0 1 2.466.419c1.231.853 1.074 2.808.201 4.025s-2.229 1.981-3.316 3.011a9.052 9.052 0 0 0-2.348 9.105c3.826 1.946 7.986 3.95 12.223 3.264s7.999-5.447 6.007-9.249c-1.855-3.541-7.426-4.34-8.384-8.221-1.122-4.544 5.31-8.585 3.862-13.035-.635-1.949-2.577-3.097-4.068-4.504a12.22 12.22 0 0 1-2.674-13.552 15.42 15.42 0 0 1-13.523-4.232c-3.234-3.264-5.815-8.414-10.408-8.267-4.215.134-7.845 5.051-11.786 3.551-.97-.369-1.992-1.12-2.931-.68a2.42 2.42 0 0 0-1.093 1.815c-1.002 4.788.721 10.244-1.888 14.382-2.84 4.503-9.409 5.127-12.852 9.187-1.869 2.204-2.593 5.174-4.311 7.498s-5.364 3.801-7.425 1.776a10.235 10.235 0 0 0-2.78-12.445 27.31 27.31 0 0 0-6.141-2.987 36.42 36.42 0 0 1-6.861-3.824 6.76 6.76 0 0 1-2.519-2.695 6.14 6.14 0 0 1 .172-4.262 17.43 17.43 0 0 1 13.867-11.494c2.745-.373 5.94-.242 7.756-2.333.961-1.107 1.465-2.78 2.861-3.229a4.22 4.22 0 0 1 2.641.325l10.245 3.606a7.19 7.19 0 0 0 3.65.604 2.475 2.475 0 0 0 2.14-2.6c-.327-1.701-2.945-2.518-2.707-4.234a2.82 2.82 0 0 1 .857-1.441 36.63 36.63 0 0 1 29.051-11.472c1.293 2.124-.752 4.639-2.454 6.452s-3.069 5.052-1.011 6.448c.843.43 1.781.642 2.728.614a23.82 23.82 0 0 1 7.261 2.202q5.311 2.311 10.417 5.057c-.301-2.245-.588-4.609.263-6.708s3.269-3.745 5.381-2.928c2.036.788 3.079 3.483 5.248 3.73 2.893.329 4.034-3.944 2.826-6.593s-3.6-4.867-3.8-7.772c-.135-1.96.611-4.39-.954-5.576a4.26 4.26 0 0 0-1.847-.648l-39.084-7.192c-2.321-.427-5.674-.1-5.777 2.258-.057 1.316 1.118 2.618.597 3.828-.556 1.291-2.381 1.173-3.711 1.63-2.063.709-3.098 3.158-2.9 5.331a14.844 14.844 0 0 0 2.448 6.008c-2.542-1.063-6.391-1.259-8.934-2.322zm-31.185-33.177a12.655 12.655 0 0 0-13.902 4.164c-.644.847-1.184 2.015-.645 2.933.772 1.315 2.741.796 4.192.325a10.55 10.55 0 0 1 6.621-.158c1.363.468 2.581 1.295 3.95 1.745a3.98 3.98 0 0 0 4.056-.593c.939-.958.998-2.447 1-3.788a3.046 3.046 0 0 0-.776-2.504 3.98 3.98 0 0 0-1.796-.531 6.18 6.18 0 0 1-3.619-2.115m15.012-3.402a3.22 3.22 0 0 0-3.112 4.534 13.05 13.05 0 0 0 5.203.339 4.45 4.45 0 0 0 3.637-3.334 8.37 8.37 0 0 1-5.928-1.132m47.483-6.96a59.833 59.833 0 0 0-13.342 4.532 10.023 10.023 0 0 1 6.402 10.068 5.24 5.24 0 0 0 .061 2.489c.49 1.188 1.91 1.634 3.158 1.939a20.82 20.82 0 0 0 6.927.884 7.057 7.057 0 0 0 5.734-3.504 24.97 24.97 0 0 1 1.192-2.819c2.992-4.557 11.881.953 15.094-3.451 1.132-1.552 1.028-3.887 2.503-5.116a5.62 5.62 0 0 1 2.574-.982 180.73 180.73 0 0 1 19.548-2.784c3.109-.271 7.162-1.387 7.188-4.508a54.15 54.15 0 0 0-34.541 4.647c-3.85 1.929-8.943 5.985-12.652 3.429-1.389-.957-1.32-3.535-3.231-4.612-1.954-1.101-4.541-.653-6.615-.212zm38.299 7.162 5.497 1.056a7.12 7.12 0 0 0-5.453 2.183 7.127 7.127 0 0 0-1.96 5.537c5.148 1.72 10.761.046 16.184.275s11.733 4.102 10.807 9.451c-.28 1.617-1.214 3.233-.728 4.801.34 1.099 1.31 1.878 1.856 2.89 1.14 2.109.229 4.776-1.21 6.693s-3.374 3.446-4.637 5.483c-3.142 5.067-1.357 11.617.515 17.277a15.23 15.23 0 0 0 2.929 5.849c2.773 2.948 7.292 3.205 11.338 3.264 2.945.043 6.32-.103 8.182-2.385 2.432-2.979.731-7.628 2.332-11.125 1.454-3.176 5.159-4.538 8.515-5.504 6.149-1.77 12.416-3.275 18.229-5.949 7.219-3.32 13.965-8.495 21.899-8.922 2.226-.12 4.507.143 6.651-.467s4.181-2.464 4.019-4.687c-.139-1.9-1.746-3.294-3.002-4.726s-2.242-3.634-1.088-5.149l20.797-3.884c-1.474-4.017-2.623-9.309.765-11.924 1.222-.944 2.859-1.321 3.899-2.461 1.774-1.944.882-5.293-1.166-6.946s-4.816-2.037-7.438-2.255c-9.119-.757-18.29-.257-27.426.244l-53.58 2.937c-3.595.197-7.746-.104-11.044 1.123-2.792 1.038-4.776 2.945-7.969 3.614-5.894 1.236-12.38.4-17.714 3.709zm98.484 43.453a2.21 2.21 0 0 0-1.6.363 2.02 2.02 0 0 0-.521 1.234 8.15 8.15 0 0 0 1.184 5.832 5.71 5.71 0 0 0 5.228 2.506c2.475-.316 4.3-2.427 6.575-3.458 3.507-1.587 18.403-4.061 8.099-9.627-3.551-1.918-5.845-.225-8.644 1.039a19.67 19.67 0 0 1-10.321 2.111zm90.25-46.595a5.882 5.882 0 0 0-2.862 2.492 2.514 2.514 0 0 0 .943 3.335 3.75 3.75 0 0 0 1.404.223l4.892.146c2.078.062 4.674.505 5.233 2.508.415 1.487-.513 3.398.606 4.461a3.155 3.155 0 0 0 1.664.649 11.34 11.34 0 0 0 4.929.159c3.56-.955 1.689-3.127 2.81-5.062 1.715-2.96 1.418-1.168 4.441-2.864 2.232-1.253 5.116-3.525 3.253-6.718-3.24-5.553-22.533-1.713-27.313.672zm96.559-2.792-2.841.379c-6.406.855-12.848 1.718-19.018 3.641a31.65 31.65 0 0 0 8.329 2.044 25.58 25.58 0 0 1 4.665.663c2.725.811 5.471 2.906 8.104 1.833 1.632-.665 2.165-2.365 3.517-3.266.934-.622 4.475-1.629 4.871-2.257 3.201-5.075-5.168-3.366-7.628-3.038zm12.474 12.911a53.277 53.277 0 0 0-10.483 7.677c-1.335 1.255-2.698 2.815-2.577 4.643.161 2.429 2.749 3.839 4.991 4.788l9.081 3.845c1.102-1.553.093-3.696-1.045-5.222s-2.492-3.291-1.989-5.128c.574-2.095 3.129-2.81 5.271-3.171 3.491-.588 12.907-.541 11.776-6.167-1.333-6.629-11.521-3.225-15.025-1.266zm-1.826 375.127c-.865 2.503-.947 5.451.549 7.637 1.678 2.452 5.036 3.366 7.942 2.744a14.313 14.313 0 0 0 7.374-4.741 25.39 25.39 0 0 0 4.241-6.504 50.8 50.8 0 0 0 3.144-11.502l2.82-14.804c.63-3.309.606-13.452-5.475-10.147-1.661.903-5.508 8.031-7.249 10.053-3.138 3.643-3.553 7.178-5.205 11.592-2.069 5.528-6.227 10.136-8.14 15.673zm321.182 75.758a44.33 44.33 0 0 1-5.778-2.751 48.677 48.677 0 0 0-2.929 15.965l13.616-7.705c2.048-1.159 4.37-2.769 4.326-5.123a1.62 1.62 0 0 0-.753-1.474 1.843 1.843 0 0 0-.955-.112c-2.019.168-3.86 1.162-5.764 1.853s-4.132 1.056-5.879.031m75.943 3.89a29.47 29.47 0 0 0-4.366 1.567c-3.125 1.59-5.25 4.609-8.062 6.703-2.691 2.004-5.93 3.104-9.11 4.174-.935.827-.506 2.492.51 3.218a6.317 6.317 0 0 0 3.596.808c3.303.073 6.784.105 9.677-1.491a30.52 30.52 0 0 0 4.556-3.616c3.383-2.823 7.446-4.685 11.467-6.485a13.16 13.16 0 0 0 3.997-2.39c2.527-2.49 2.705-6.331-.939-7.178-2.944-.685-8.523 3.782-11.326 4.689zm31.736-20.731a11.36 11.36 0 0 0-3.475-9.307c-.037 3.428-.141 7.079-2.069 9.914-1.374 2.02-3.527 3.384-5.032 5.307s-2.173 4.973-.408 6.661a6.61 6.61 0 0 0 3.92 1.35c3.514.414 7.581.644 10.045-1.894 1.345-1.386 1.999-3.438 3.64-4.456a4.43 4.43 0 0 0 1.597-1.143c.677-1.077-.399-2.496-1.61-2.884s-2.547-.206-3.764-.574-2.335-1.738-1.71-2.846"/><path d="M1042.503 528.759a15.794 15.794 0 0 1-5.636.332c-3.128-.575-5.563-2.933-8.088-4.866a35.68 35.68 0 0 0-20.846-7.283c-6.863-.13-13.789 1.73-20.529.433.44 2.449 2.536 4.286 4.772 5.378s4.704 1.641 6.951 2.711a16.59 16.59 0 0 1 8.039 8.363c.724 1.689 1.179 3.528 2.275 5.003 2.241 3.015 6.488 3.677 10.236 3.43 4.887-.321 9.991-1.727 14.537.094 3.478 1.393 5.967 4.437 8.871 6.804s6.994 4.124 10.329 2.416a17.073 17.073 0 0 1-11.814-16.43c3.27.301 12.69.184 12.183-5.373-.43-4.709-8.471-1.52-11.28-1.012zm-42.783 38.317c.581-3.185 3.757-5.997 2.767-9.08-.684-2.132-3.156-3.184-5.394-3.237s-4.437.614-6.675.677a32.53 32.53 0 0 0-4.371.062c-4.442.73-7.181 5.387-11.367 7.042-2.546 1.007-5.406.814-8.053 1.51-6.01 1.58-9.813 7.259-14.014 11.838a50.01 50.01 0 0 1-25.384 14.804c-3.417.791-7.09 1.297-9.807 3.517-3.597 2.939-4.482 7.977-5.282 12.552a207.376 207.376 0 0 1-10.093 37.051l14.27 1.822c2.713.346 5.524.685 8.139-.118a23.63 23.63 0 0 0 5.353-2.852 53.44 53.44 0 0 1 20.879-7.537c3.737-.513 7.655-.607 11.162.782s6.516 4.539 6.809 8.3a8.77 8.77 0 0 1 8.762 2.131 15.23 15.23 0 0 1 4.183 8.351c.376 1.952.752 4.292 2.564 5.111 1.478.668 3.173-.051 4.79-.181 5.486-.439 10.039 5.958 15.432 4.857 5.784-1.181 7.203-9.843 12.846-11.578 3.241-.996 7.786.215 9.338-2.799 1.368-2.657-1.361-5.723-1.08-8.698.347-3.663 4.667-5.218 7.998-6.781 11.484-5.389 16.934-20.845 11.369-32.245-3.297-6.754-9.785-12.071-10.983-19.491-.922-5.709 1.329-12.366-2.311-16.859-1.852-2.286-4.987-3.548-6.088-6.275-.694-1.717-.415-3.665-.788-5.479s-1.956-3.711-3.747-3.241c-5.199 1.365-6.858 17.425-9.641 21.327-4.231 5.932-12.917 2.024-11.585-5.284zm-96.095-32.249c-1.777-.498-3.717-.989-5.419-.277s-2.696 3.211-1.33 4.451c10.688-.416 21.442-.83 32.04.622 12.21 1.672 24.294 5.815 36.558 4.596a186.06 186.06 0 0 0-21.326-4.949l-12.006-2.293a92.83 92.83 0 0 0-9.749-1.506c-6.849-.566-12.033 1.245-18.768-.644zm10.701-37.226c-.887-.074-1.986-.138-2.445.625-.439.729.063 1.692-.172 2.509-.322 1.117-1.785 1.402-2.937 1.25s-2.398-.516-3.419.039a2.9 2.9 0 0 0-1.12 3.292 8.464 8.464 0 0 0 1.976 3.15 32.187 32.187 0 0 0 5.128 5.143c3.674 2.712 8.65 4.018 10.964 7.955a5.28 5.28 0 0 0 1.464 1.971c1.111.704 2.559.168 3.755-.378l4.192-1.915a4.76 4.76 0 0 0 1.96-1.333c.958-1.299.369-3.147-.434-4.547s-1.833-2.849-1.66-4.454c.308-2.862 3.987-3.956 5.5-6.405 1.525-2.468.532-5.648.708-8.544.206-3.387 2.334-7.792-1.09-10.323-2.91-2.151-5.691-.163-7.78 2.211-4.406 5.007-6.489 10.429-14.588 9.753zm25.445-50.603c1.431 2.74 4.415 4.376 5.975 7.044 1.692 2.893 1.499 6.63 3.334 9.434 1.883 2.877 5.672 4.404 6.728 7.675 1.153 3.572-1.463 7.913.622 11.034a4.63 4.63 0 0 0 6.794.624 4.984 4.984 0 0 0-.206-6.954c-1.234-1.126-3.007-1.612-4.038-2.927a6.14 6.14 0 0 1-1.046-2.546 16.67 16.67 0 0 1 .262-7.989c.276-.66.346-1.389.201-2.09-.464-1.349-2.29-1.444-3.572-2.07-2.911-1.421-2.841-5.53-2.332-8.729-.339 2.13-7.926-1.493-8.72-2.699-1.578-2.397-.719-7.02-1.032-9.669-3.407 1.642-4.721 6.51-2.972 9.861zm-76.436 42.162c-1.4-1.568-3.51-3.208-5.387-2.262-1.432.721-1.826 2.703-1.265 4.205a9.256 9.256 0 0 0 3.055 3.642c3.913 3.227 8.126 6.139 11.539 9.89 6.108 6.713 9.344 15.77 15.987 21.954a8.957 8.957 0 0 0 5.034 2.724c1.935.18 4.109-1.059 4.331-2.99.183-1.591-.926-3.014-2.009-4.193-2.581-2.807-5.406-5.391-7.842-8.323a6.994 6.994 0 0 1-2.004-4.186c-.012-1.579 1.428-3.232 2.958-2.841-1.861-.476-3.241-3.576-5.972-4.159-2.282-.487-2.835.926-5.551-.239-5.181-2.222-9.245-9.161-12.873-13.223zm121.732-152.646a42.9 42.9 0 0 1-4.377-1.563c-3.847-1.155-8.936 1.673-8.423 5.656.341 2.647 2.804 4.431 4.164 6.727 2.017 3.404 1.479 7.722.419 11.535a9.017 9.017 0 0 1-1.455 3.282 11.13 11.13 0 0 1-3.447 2.48 46.105 46.105 0 0 0-13.49 11.46c-.404.43-.685.96-.815 1.536-.183 1.345 1.168 2.325 1.933 3.446 1.698 2.492.471 5.845.638 8.855a2.51 2.51 0 0 0 1.055 2.197c1.023.52 2.236-.363 2.79-1.368 1.841-3.335.454-8.687 3.907-10.295.653-.304 1.445-.432 1.881-1.006.691-.91.024-2.258.375-3.346.526-1.633 2.76-1.707 4.475-1.634a25.4 25.4 0 0 0 8.724-1.161 5.804 5.804 0 0 0 2.888-1.672c1.032-1.288.941-3.12.734-4.758a64.49 64.49 0 0 0-7.62-23.25c3.033.387 6.333.723 8.95-.858 1.466-.885 3.223-3.532 2.496-5.334-1.15-2.849-3.226-.451-5.804-.927zM596.218 381.42c.363 1.947.72 3.997.082 5.871s-2.645 3.441-4.54 2.867c-1.471-.446-2.32-1.925-3.365-3.052-5.808-6.27-18.912-2.64-22.5-10.397-1.464-3.166-.469-6.959-1.468-10.301a9.17 9.17 0 0 0-9.285-6.308 19.08 19.08 0 0 0-5.343 1.595 134.726 134.726 0 0 1-35.401 8.854 29.074 29.074 0 0 0-6.802 1.238c-4.988 1.808-8.396 6.432-10.821 11.151s-4.216 9.827-7.467 14.019c-3.417 4.406-8.206 7.491-12.673 10.828a12.93 12.93 0 0 0-4.181 4.382c-.968 1.988-.914 4.301-.839 6.511l.913 26.844c.117 3.453.265 7.029 1.81 10.119 1.93 3.858 5.742 6.386 8.386 9.794a19.183 19.183 0 0 1 3.98 12.251c-.056 1.777-.233 3.879 1.151 4.995a5.06 5.06 0 0 0 2.83.814l36.312 2.972c6.387.523 13.466 1.382 17.637 6.249 1.968 2.297 3.549 5.6 6.564 5.846 1.293.106 2.551-.425 3.845-.528 3.263-.258 6.13 2.218 7.939 4.946a21.946 21.946 0 0 1 3.525 14.08c-.297 3.112-1.261 6.137-1.469 9.256-.791 11.868 9.269 22.179 9.464 34.071.115 6.995-3.206 13.531-6.444 19.733 5.225 7.916.947 18.457 3.027 27.711 1.974 8.78 9.294 15.653 11.118 24.465.835 4.034.883 8.998 4.441 11.076a10.12 10.12 0 0 0 5.025 1.006 66.24 66.24 0 0 0 30.165-6.867c4.399-2.183 8.957-5.441 9.725-10.291.62-3.911-1.364-8.286.655-11.693 2.379-4.015 8.473-3.697 11.974-6.784 5.679-5.008 1.251-14.56 3.551-21.773 2.068-6.484 9.187-9.929 12.716-15.748a27.993 27.993 0 0 0 2.955-8.009 114.25 114.25 0 0 0 3.007-20.426 122.31 122.31 0 0 1 .924-12.511c3.805-23.638 27.173-39.466 34.76-62.174.725-2.169 1.065-5.057-.864-6.284a5.526 5.526 0 0 0-3.674-.385l-16.739 2.11c-2.079.262-4.283.507-6.192-.356s-3.278-3.279-2.265-5.114c2.843-5.15-3.005-11.657-5.603-16.935a249.846 249.846 0 0 0-24.885-40.357 4.1 4.1 0 0 1-1.091-2.369l4.751.158c-1.604-5.754-4.25-12.051-9.841-14.156-3.15-1.186-6.639-.776-10-.592-9.627.526-19.948-.928-29.477-2.401zm29.484-129.675c2.519 2.675 5.342 5.512 8.987 5.978 6.438.824 11.067-5.834 14.014-11.617a5.68 5.68 0 0 0 5.923 5.251 11.677 11.677 0 0 0 4.455-1.742 87.76 87.76 0 0 1 41.579-10.748 4.49 4.49 0 0 1 3.429-4.936c2.955-.586 5.618 1.969 7.043 4.624s2.315 5.731 4.58 7.718 6.65 1.9 7.545-.977c.859-2.762-2.019-5.118-4.409-6.746s-4.91-4.642-3.301-7.046c12.213-2.704 24.502-5.417 37-5.955a15.49 15.49 0 0 0 6.228-1.073c1.906-.935 3.421-3.058 2.908-5.119a14.104 14.104 0 0 1-14.718-5.552c17.341-1.431 35.785-2.651 51.153 5.509 1.844 3.959-7.555 7.253-5.04 10.824.802 1.139 2.409 1.272 3.802 1.298 10.679.198 21.421.393 31.98-1.22 3.859-.589 7.756-1.421 11.63-.943 6.453.796 11.972 5.101 18.32 6.505 2.584.571 5.481.591 7.659-.912s3.114-4.925 1.329-6.878c5.977-5.858 15.897-4.406 23.783-1.602s15.355 7.327 23.701 7.953c5.985.448 12.053-1.162 17.966-.138 3.716.643 7.175 2.296 10.807 3.312 6.869 1.921 14.136 1.515 21.268 1.608a149.02 149.02 0 0 1 53.106 10.553 15.79 15.79 0 0 1 5.904 3.488c1.573 1.685 2.376 4.303 1.318 6.351l-17.473-2.553c1.646 3.241 5.905 3.793 9.364 4.911s7.045 4.938 4.966 7.92c-3.748-1.193-7.144 2.554-9.037 6.001s-4.2 7.576-8.127 7.786c-3.517.188-7.77-2.806-10.062-.133a68.63 68.63 0 0 1 8.086 12.927c2.265 4.718 3.878 10.663.817 14.908a3.865 3.865 0 0 1-2.066 1.602c-2.5.633-4.124-2.425-5.917-4.279-2.259-2.336-5.676-2.997-8.735-4.093s-6.282-3.25-6.521-6.491c-.149-2.016.916-3.891 1.7-5.754a22.17 22.17 0 0 0 1.684-9.944c-.172-2.735-.939-5.581-2.903-7.492s-5.356-2.517-7.465-.767c-.984.817-1.773 2.123-3.05 2.172-2.258.086-3.991-3.85-5.808-2.506a6.17 6.17 0 0 1-.839 4.128c-5.421 4.714-13.748 2.72-20.736 4.385a38.92 38.92 0 0 0-9.461 4.132 6.086 6.086 0 0 0-2.704 2.27c-.872 1.695.089 3.866 1.627 4.993 1.631 1 3.463 1.625 5.365 1.831 8.519 1.614 17.163 4.111 23.889 9.583s11.137 14.518 9.009 22.924l-16.801-16.054q.957 10.111 1.086 20.277a9.102 9.102 0 0 1-.533 3.9c-1.198 2.645-4.444 3.536-7.289 4.12a5.71 5.71 0 0 0-4.383 7.315c1.011 3.294 3.531 5.863 5.838 8.422s4.578 5.468 4.88 8.9-2.288 7.302-5.725 7.063c-2.606-.181-4.539-2.514-5.651-4.878s-1.773-4.997-3.443-7.006c-5.055-6.08-16.409-3.475-20.937-9.956a10.24 10.24 0 0 0-2.118 9.746c2.107-1.319 4.991-.093 6.574 1.823s2.33 4.373 3.573 6.525c1.677 2.904 4.347 5.479 4.581 8.825a28.78 28.78 0 0 0 .064 3.795c.416 2.027 2.129 3.483 3.317 5.177 2.764 3.943 2.628 9.359.846 13.833s-4.983 8.212-8.153 11.836c-5.538 6.33-11.189 12.623-17.754 17.88-1.873 1.5-3.873 2.975-5.039 5.072s-1.227 5.041.566 6.636c-1.283.064-3.584.695-4.866.759a113.14 113.14 0 0 1-.293-15.477c-5.063-2.431-10.514 4.079-9.86 9.657s4.688 10.054 7.56 14.88c2.1 3.529 3.662 7.644 2.96 11.69s-4.313 7.779-8.405 7.423c-6.508-.568-9.23-9.91-15.674-10.979a2.64 2.64 0 0 0-1.696.168c-.957.525-1.123 1.805-1.177 2.895-.264 5.349-.492 10.911 1.596 15.843 3.055 7.215 10.946 13.275 9.291 20.933-8.918-4.145-13.554-14.146-15.66-23.752s-2.456-19.691-6.23-28.772c-2.865 3.673-8.888.637-11.507-3.216-2.482-3.653-4.01-7.878-6.419-11.581s-6.097-7.017-10.509-7.221c-4.625-.213-8.637 2.961-12.165 5.96-2.901 2.466-5.879 5.029-7.575 8.439-2.468 4.961-1.822 10.809-1.941 16.349-.129 5.989-1.398 12.307-5.479 16.691s-11.615 5.911-16.117 1.96c-2.35-2.063-3.488-5.145-4.502-8.103a396.79 396.79 0 0 1-12.188-43.511c-.756 3.36-3.707 7.692-6.526 5.712a5.84 5.84 0 0 1-1.504-1.937c-5.258-8.912-14.996-14.258-24.835-17.463s-20.191-4.7-29.92-8.223a75.83 75.83 0 0 1-15.521-7.731 12.21 12.21 0 0 0-.746 12.487c2.158 3.822 7.042 6.033 11.223 4.697 2.16-.69 3.985-2.19 6.129-2.931s5.021-.377 5.958 1.688c.897 1.977-.459 4.368.214 6.432 1.025 3.144 5.766 3.386 7.424 6.247 1.234 2.128.219 4.955-1.543 6.672s-4.111 2.66-6.261 3.855c-6.976 3.879-11.937 10.502-18.034 15.654s-14.699 8.914-21.965 5.609c1.732-8.77-8.715-15.209-10.637-23.939-.633-2.874-.305-5.926-1.208-8.726-1.308-4.054-4.905-6.842-7.856-9.915a38.91 38.91 0 0 1-10.673-28.31c.159-3.608.822-7.275 0-10.792s-3.734-6.921-7.342-6.762c-8.241.364-18.623.977-22.947-6.048-1.543-2.507-2.215-6.18.016-8.101 1.574-1.355 3.897-1.227 5.964-1.024l18.568 1.827c4.343.427 9.037.78 12.764-1.491s5.342-8.297 1.891-10.968c-2.521-1.952-7.039-1.846-7.772-4.949-.61-2.584 2.25-5.517.705-7.677-1.108-1.549-3.598-1.119-5.108.042s-2.604 2.859-4.293 3.738c-2.963 1.542-6.503.074-9.691-.923s-7.461-1.082-9.007 1.879c-1.729 3.311 1.534 7.65-.182 10.968-2.269 4.387-9.953 1.889-13.139 5.663-3.656 4.33 2.488 10.786 1.255 16.318a10.16 10.16 0 0 1-10.007-.562 9.72 9.72 0 0 1-4.201-9.051c.305-2.488 1.603-5.028.733-7.38-.703-1.901-2.612-3.033-4.386-4.013l-18.044-9.971c-1.675 3.108.443 6.961 3.091 9.295s5.967 4.092 7.707 7.164a9.404 9.404 0 0 1-3.539 12.398 2.17 2.17 0 0 1-1.789.312c-.582-.342-1-.904-1.16-1.56-3.184-8.147-7.964-16.18-15.606-20.436s-18.623-3.381-23.634 3.789c-1.19 1.703-1.989 3.644-3.026 5.444-5.509 9.565-17.319 14.095-28.354 13.799a5.63 5.63 0 0 1-3.093-.727c-1.783-1.232-1.703-3.845-1.43-5.995l1.158-9.124c.233-1.832.57-3.857 2.02-5.001 2.044-1.612 4.993-.595 7.596-.632a9.626 9.626 0 0 0 8.738-6.744 10.85 10.85 0 0 0-3.02-10.789c-1.193-1.121-2.795-2.528-2.164-4.039a3.34 3.34 0 0 1 2.342-1.577c4.676-1.358 9.617-1.714 14.215-3.316s9.057-4.88 10.146-9.626c.334-1.454.486-3.216 1.792-3.937a5.36 5.36 0 0 1 2.071-.423 10.08 10.08 0 0 0 8.644-10.506c2.204-1.54 5.291-.407 7.423 1.231s4.014 3.801 6.608 4.507c4.834 1.316 9.506-2.964 14.516-2.984 2.107-.008 4.288.737 6.27.022 2.009-.724 3.209-2.724 4.751-4.202s4.248-2.379 5.672-.787l-1.213-8.982a17.66 17.66 0 0 0 14.371-2.598l-15.672-5.295a3.4 3.4 0 0 1-1.466-.784c-1.139-1.227-.008-3.139.919-4.533 2.216-3.336 2.589-8.832-1.056-10.493-2.488-1.134-5.344.227-7.732 1.559l-11.439 6.378c-.364 2.174 2.295 3.407 3.943 4.871a6.61 6.61 0 0 1-4.311 11.552 8.24 8.24 0 0 1 1.471 6.984l-7.696.554a3.33 3.33 0 0 1-2.496-.487c-.823-.731-.712-2.012-.902-3.096-.46-2.617-3.023-4.451-5.638-4.921s-5.291.133-7.88.728a4.7 4.7 0 0 1-3.387-.078 3.38 3.38 0 0 1-1.34-1.691c-1.135-2.753-.074-5.988 1.749-8.342s4.32-4.075 6.561-6.035a38.236 38.236 0 0 0 11.371-17.638c4.237-1.775 8.623-4.187 12.86-5.962a39.35 39.35 0 0 1 21.151-4.098l14.348.274c4.248.081 8.611.185 12.539 1.805s7.379 5.122 7.651 9.362a2.87 2.87 0 0 1-.92 2.627 3.39 3.39 0 0 1-1.814.409c-3.962.139-5.651 1.126-9.613 1.266zm-114.363 44.967a4.2 4.2 0 0 0 1.145-4.223 7.85 7.85 0 0 0-8.132 1.536 13.71 13.71 0 0 0-2.179 2.88c-1.885 3.076-3.553 6.75-2.46 10.189a2.89 2.89 0 0 0 1.325 1.812 3.48 3.48 0 0 0 1.544.242 51.76 51.76 0 0 0 6.214-.382c1.266-.155 2.737-.512 3.226-1.69.643-1.548-.914-3.301-.46-4.915a5.37 5.37 0 0 1 1.326-1.899 2.51 2.51 0 0 0 .782-2.107c-.183-.757-1.343-1.187-1.76-.529m10.199-14.877a17.39 17.39 0 0 0-5.631-.354 2.453 2.453 0 0 0-1.2.273 2 2 0 0 0-.739 1.071 5.32 5.32 0 0 0 3.097 6.519 6.667 6.667 0 0 1 1.92.772c1.593 1.236.577 3.761.879 5.754.339 2.238 2.505 4.116 2.108 6.345-.313 1.755-2.188 3.146-1.886 4.903.316 1.841 2.652 2.394 4.514 2.541a5.67 5.67 0 0 0 3.198-.367 4.95 4.95 0 0 0 2.018-2.922 18.73 18.73 0 0 0 .944-7.052 6.687 6.687 0 0 0-.795-3.113 17.38 17.38 0 0 0-1.858-2.128c-3.567-4.149.189-10.338-6.567-12.242z"/></g><g fill="none" stroke="#6c63ff" stroke-miterlimit="10" stroke-width="2"><path d="M991.171 607.784S717.969 450.962 600.352 480.675c0 0-249.265 26.825-278.154 85.84 0 0-79.237-247.615-108.125-255.868" opacity=".8"/><path d="M322.199 566.515c45.809-122.157 458.5-257.519 458.5-257.519-58.602 14.857-180.346 171.679-180.346 171.679s-257.52-187.361-386.279-170.028c0 0 567.037 18.571 777.097 297.137" opacity=".8"/></g><g fill="#00b0ff"><circle cx="214.074" cy="310.647" r="11.968"/><circle cx="322.199" cy="566.515" r="11.968"/><circle cx="780.698" cy="308.996" r="11.968"/><circle cx="991.171" cy="607.784" r="11.968"/><circle cx="600.352" cy="480.675" r="11.968"/></g></svg>