<?xml version="1.0" encoding="UTF-8"?>
<!DOCTYPE svg  PUBLIC '-//W3C//DTD SVG 20010904//EN'  'http://www.w3.org/TR/2001/REC-SVG-20010904/DTD/svg10.dtd'>
<svg width="1920pt" height="500pt" version="1.0" viewBox="0 0 1920 500" xmlns="http://www.w3.org/2000/svg">
<g transform="translate(0 500) scale(.1 -.1)">
<path d="m18970 4993c-37-14-74-49-91-87-17-39-19-78-19-660v-620l-27 26c-74 68-219 146-340 181-85 25-249 40-358 33-251-15-461-111-640-289-137-138-222-289-267-473-20-84-21-120-25-617-4-446-2-545 11-636 35-236 118-396 295-571 102-100 201-166 322-214 125-49 192-60 364-60 136-1 173 3 250 22 136 35 303 121 386 199l26 24 5-68c9-127 58-178 170-178 80 0 112 19 146 85l22 44v1866 1866l-22 44c-35 69-137 109-208 83zm-605-1479c129-31 248-107 343-219 67-78 108-155 132-251 19-72 20-112 20-613 0-594 0-594-65-726-70-142-220-279-365-333-320-117-685 34-832 344-55 117-58 150-58 725 0 598 2 616 82 756 37 65 132 171 198 221 135 103 355 142 545 96z"/>
<path d="m6305 4541c-98-45-132-146-82-241 42-80 137-110 224-71 130 60 127 253-6 310-60 26-84 26-136 2z"/>
<path d="m7497 4551c-20-4-49-19-63-32-53-49-54-57-54-363v-284l-253-4-254-3-36-28c-49-37-67-75-67-140 0-60 23-104 73-141 27-20 43-21 282-24l254-3 3-982c3-966 4-983 24-1043 52-151 143-269 280-364 278-192 676-187 974 13 98 66 140 124 140 197 0 144-162 209-285 115-136-103-297-149-447-126-130 20-249 93-304 187-55 93-54 74-54 1076v927l463 3c441 3 464 4 496 23 58 34 76 68 76 143 0 81-25 124-89 153-38 17-74 19-493 19h-453v281c0 315-3 331-69 374-42 28-91 36-144 26z"/>
<path d="m1510 4135c-264-34-511-126-736-277-94-63-262-204-309-259-90-107-130-158-178-230-300-455-369-1028-184-1539 48-132 106-245 195-380 71-108 115-155 741-782 483-485 671-668 688-668 29 0 1272 1237 1366 1360 247 323 367 672 367 1070 0 358-108 697-312 985-122 172-326 365-499 472-338 211-742 298-1139 248zm489-290c188-36 366-110 535-222 134-88 309-262 398-398 247-371 310-828 173-1242-96-289-270-532-510-708-261-192-545-285-869-285-661 0-1235 448-1399 1094-30 116-31 130-32 331 0 166 4 228 18 295 96 448 383 815 792 1016 142 69 310 117 485 138 71 9 328-3 409-19z"/>
<path d="m1260 2595v-915h270 270l2 361 3 361 157 86 157 87 1 312v311l-37 12c-21 7-90 32-153 55-189 70-448 165-562 206l-108 38v-914z"/>
<path d="m2232 3124c3-34 5-36 76-60 41-13 97-39 125-58 112-71 210-202 242-321 17-60 20-65 46-65 15 0 30 4 33 9 9 14-32 139-67 206-42 79-164 202-247 248-36 20-98 45-138 56l-73 20 3-35z"/>
<path d="m2230 2998c0-33 3-35 53-51 115-38 225-148 266-267 14-41 25-56 41-58 43-7 50 2 35 51-39 131-142 255-259 312-39 19-86 38-103 41-32 6-33 6-33-28z"/>
<path d="m2228 2877c-3-32-1-35 43-55 58-27 123-92 155-154 21-41 29-48 54-48 38 0 38 11 0 87-44 88-138 170-226 197-19 6-22 2-26-27z"/>
<path d="m670 2245v-565h245 245l-2 563-3 562-242 3-243 2v-565z"/>
<path d="m2230 2749c0-23 10-42 40-71 22-22 40-44 40-49s18-9 40-9h41l-17 33c-21 41-71 95-106 113-37 19-38 18-38-17z"/>
<path d="m2330 2100v-420h215 215l-2 418-3 417-212 3-213 2v-420z"/>
<path d="m2058 2427-147-82-1-332v-333h154c131 0 155 2 160 16 3 9 6 195 6 415 0 313-3 399-12 398-7 0-79-37-160-82z"/>
<path d="m6317 3856c-51-19-73-40-92-90-14-37-15-184-13-1353 3-1307 3-1312 24-1339 35-47 70-67 126-71 72-6 135 26 163 82 20 39 20 63 23 1305 2 696 0 1288-3 1317-7 55-34 104-75 135-34 25-106 31-153 14z"/>
<path d="m8958 3852c-59-27-82-65-86-141-3-59 2-81 48-206l80-220c15-44 87-242 160-440 72-198 140-382 150-410 9-27 84-232 165-455s165-452 186-510c20-58 49-136 62-173l26-68-19-47c-11-26-48-123-84-217-35-93-94-247-130-342-72-188-81-241-47-303 21-41 89-80 137-80s111 28 132 59c10 14 79 186 152 381 171 456 145 387 310 825 79 209 153 407 165 440 13 33 82 218 155 410 72 193 204 541 291 775 88 234 171 453 185 486 43 102 18 189-66 232-106 53-203 5-250-124-30-83-727-1937-742-1973l-14-34-78 219c-43 120-97 269-118 329-22 61-55 155-74 210s-43 123-54 150c-19 51-111 309-240 670-165 463-175 490-203 522-46 52-131 67-199 35z"/>
<path d="m12025 3859c-312-42-574-218-700-469-90-178-98-273-92-1049 4-646 5-651 63-804 69-181 244-360 438-447 148-66 332-96 536-87 157 7 282 38 411 102 79 40 109 63 190 144 115 114 139 151 139 209 0 80-50 149-123 167-73 19-166-25-202-94-22-43-87-101-145-131-109-55-303-81-455-61-261 35-443 180-499 398-23 87-24 1308-1 1393 53 198 210 341 425 386 44 9 124 15 196 15 246 0 387-57 478-193 50-74 79-92 157-96 65-4 68-3 107 33 77 69 81 153 15 251-107 157-290 270-518 320-85 19-323 26-420 13z"/>
<path d="m13985 3856c-220-37-389-124-519-267-78-87-110-154-104-220 15-151 190-200 293-81 168 193 274 243 515 243 203 0 332-43 436-147 99-97 133-197 141-410l6-151-49-11c-27-6-101-23-164-37-217-49-285-64-443-100-295-67-473-153-630-304-167-160-239-330-238-560 1-237 78-414 249-572 179-166 427-247 717-236 201 8 342 51 497 150l56 35 5-45c13-116 138-178 246-121 87 45 81-39 81 1089 0 815-3 1011-14 1071-66 342-305 588-646 663-102 22-333 28-435 11zm765-1703c0-358-7-418-56-514-94-186-238-279-475-304-71-8-226 8-300 29-154 46-278 155-331 291-19 49-23 79-23 170 0 105 2 114 34 178 63 129 207 239 388 297 51 16 193 52 315 80 123 28 268 61 323 75 55 13 106 24 113 24 9 1 12-71 12-326z"/>
<path d="m15562 3863c-42-8-100-76-107-125-3-24-5-627-3-1340 3-1292 3-1297 24-1324 41-55 70-69 144-69 78 0 110 17 145 76 20 33 20 57 26 994 4 716 8 971 18 1005 39 144 86 234 161 311 95 97 208 139 371 140 153 0 251-33 375-126 76-57 136-80 181-69 108 25 166 148 115 244-39 72-214 187-366 240-266 91-612 47-808-103l-47-36-10 51c-6 28-20 63-31 78-33 47-109 68-188 53z"/>
<path d="m4158 3840c-53-29-78-75-78-146 0-69 23-114 72-144 32-19 52-20 641-20 406 0 607-3 607-10 0-6-69-113-153-238-85-125-430-641-768-1147l-613-920v-58c1-48 6-63 31-95 43-54 74-61 272-61 161-1 173 0 166 17-40 96-45 176-14 258 14 36 302 477 792 1213l771 1156 1 57c0 61-17 93-69 132-27 21-37 21-824 23-772 2-798 2-834-17z"/>
<path d="m4517 1312c-28-31-47-90-47-147s19-116 47-147c15-17 52-18 597-18 547 0 583 1 616 19 56 29 80 73 80 146s-25 120-80 147c-32 17-83 18-616 18-545 0-582-1-597-18z"/>
</g>
</svg>
