<svg xmlns="http://www.w3.org/2000/svg" width="224" height="30.334"><path d="M13.12 0q6.168 0 9.448 3.028 3.28 3.028 3.28 9.027v17.942h-5.1v-3.925a8.51 8.51 0 0 1-3.841 3.168 14.66 14.66 0 0 1-5.915 1.093A12.38 12.38 0 0 1 3 27.92a7.73 7.73 0 0 1-3-6.336 7.8 7.8 0 0 1 2.86-6.308q2.86-2.383 9.083-2.383h8.523v-1.065a6.86 6.86 0 0 0-2.019-5.327q-2.019-1.85-5.943-1.85a15.75 15.75 0 0 0-5.158.869 13.29 13.29 0 0 0-4.262 2.33L.841 3.813A16.276 16.276 0 0 1 6.336.981 22.99 22.99 0 0 1 13.12 0zm-1.233 26.185a10 10 0 0 0 5.327-1.374 7.86 7.86 0 0 0 3.252-3.9v-4.149h-8.3q-6.841 0-6.841 4.6a4.16 4.16 0 0 0 1.738 3.532 7.952 7.952 0 0 0 4.824 1.291zm37.062 4.149a16.5 16.5 0 0 1-8.1-1.962 14.38 14.38 0 0 1-5.579-5.411 15.19 15.19 0 0 1-2.019-7.822 15.19 15.19 0 0 1 2.017-7.819 14.18 14.18 0 0 1 5.579-5.383 16.7 16.7 0 0 1 8.1-1.934 15.555 15.555 0 0 1 7.205 1.626 11.58 11.58 0 0 1 4.906 4.71l-4.093 2.635a9.14 9.14 0 0 0-3.476-3.2 9.91 9.91 0 0 0-4.6-1.065 10.63 10.63 0 0 0-5.243 1.29 9.19 9.19 0 0 0-3.645 3.673 11.11 11.11 0 0 0-1.318 5.467 11.23 11.23 0 0 0 1.318 5.523 9.19 9.19 0 0 0 3.645 3.673 10.63 10.63 0 0 0 5.243 1.29 9.91 9.91 0 0 0 4.6-1.065 9.14 9.14 0 0 0 3.476-3.2l4.093 2.579a11.756 11.756 0 0 1-4.906 4.738 15.34 15.34 0 0 1-7.203 1.657zm31.568 0a16.5 16.5 0 0 1-8.1-1.962 14.376 14.376 0 0 1-5.579-5.411 15.19 15.19 0 0 1-2.018-7.822 15.19 15.19 0 0 1 2.011-7.819 14.18 14.18 0 0 1 5.579-5.383 16.69 16.69 0 0 1 8.1-1.934 15.547 15.547 0 0 1 7.2 1.626 11.58 11.58 0 0 1 4.906 4.71l-4.085 2.632a9.14 9.14 0 0 0-3.476-3.2 9.91 9.91 0 0 0-4.6-1.065 10.63 10.63 0 0 0-5.243 1.29 9.19 9.19 0 0 0-3.645 3.673 11.11 11.11 0 0 0-1.318 5.467 11.23 11.23 0 0 0 1.318 5.523 9.19 9.19 0 0 0 3.645 3.673 10.63 10.63 0 0 0 5.243 1.29 9.91 9.91 0 0 0 4.6-1.065 9.14 9.14 0 0 0 3.476-3.2l4.093 2.579a11.756 11.756 0 0 1-4.906 4.738 15.334 15.334 0 0 1-7.201 1.66zm45.47-15.027a15.507 15.507 0 0 1-.112 1.626h-24.108a9.33 9.33 0 0 0 3.449 6.308 11.25 11.25 0 0 0 7.317 2.383 11.02 11.02 0 0 0 8.579-3.588l2.972 3.476a13.02 13.02 0 0 1-5.018 3.588 17.47 17.47 0 0 1-6.7 1.234 17.55 17.55 0 0 1-8.354-1.934 13.8 13.8 0 0 1-5.635-5.411 15.51 15.51 0 0 1-1.99-7.85 15.75 15.75 0 0 1 1.934-7.794 13.86 13.86 0 0 1 5.326-5.411A15.17 15.17 0 0 1 111.301 0a14.87 14.87 0 0 1 7.6 1.934 13.59 13.59 0 0 1 5.214 5.411 16.483 16.483 0 0 1 1.872 7.962zm-14.69-10.765a9.3 9.3 0 0 0-6.476 2.355 9.494 9.494 0 0 0-3.056 6.168h19.064a9.56 9.56 0 0 0-3.056-6.14 9.24 9.24 0 0 0-6.474-2.383z" fill="#006697"/><path d="M141.969 30.334a24.9 24.9 0 0 1-7.009-.981 15.4 15.4 0 0 1-5.271-2.5l2.243-4.261a16.1 16.1 0 0 0 4.766 2.243 19.61 19.61 0 0 0 5.663.841q7.065 0 7.065-4.037a2.61 2.61 0 0 0-.953-2.131 6.03 6.03 0 0 0-2.383-1.149q-1.43-.364-4.065-.813a39.773 39.773 0 0 1-5.859-1.29 9.03 9.03 0 0 1-3.9-2.467 6.87 6.87 0 0 1-1.626-4.878 7.62 7.62 0 0 1 3.364-6.476q3.364-2.439 9.027-2.439c2.003.003 3.999.247 5.944.729a15.98 15.98 0 0 1 4.878 1.962l-2.3 4.261a15.46 15.46 0 0 0-8.579-2.355 9.92 9.92 0 0 0-5.215 1.121 3.386 3.386 0 0 0-1.794 2.972 2.836 2.836 0 0 0 1.009 2.3 6.39 6.39 0 0 0 2.495 1.234q1.486.392 4.177.9a45.31 45.31 0 0 1 5.8 1.318 8.66 8.66 0 0 1 3.793 2.382 6.636 6.636 0 0 1 1.57 4.71 7.427 7.427 0 0 1-3.449 6.42q-3.45 2.384-9.391 2.384zm46.426-15.027a15.43 15.43 0 0 1-.112 1.626h-24.11a9.33 9.33 0 0 0 3.448 6.308 11.257 11.257 0 0 0 7.317 2.383 11.02 11.02 0 0 0 8.579-3.588l2.971 3.476a13.02 13.02 0 0 1-5.018 3.588 17.47 17.47 0 0 1-6.7 1.234 17.55 17.55 0 0 1-8.354-1.934 13.8 13.8 0 0 1-5.635-5.411 15.513 15.513 0 0 1-1.991-7.85 15.75 15.75 0 0 1 1.934-7.794 13.86 13.86 0 0 1 5.327-5.411A15.17 15.17 0 0 1 173.705 0a14.87 14.87 0 0 1 7.6 1.934 13.58 13.58 0 0 1 5.214 5.411 16.48 16.48 0 0 1 1.876 7.962zm-14.69-10.765a9.3 9.3 0 0 0-6.476 2.355 9.494 9.494 0 0 0-3.056 6.168h19.064a9.56 9.56 0 0 0-3.055-6.145 9.24 9.24 0 0 0-6.477-2.378zm34.876 25.792a16.104 16.104 0 0 1-7.962-1.962 14.23 14.23 0 0 1-5.523-5.411 15.36 15.36 0 0 1-1.99-7.822 15.36 15.36 0 0 1 1.99-7.822 14.027 14.027 0 0 1 5.523-5.383A16.3 16.3 0 0 1 208.581 0a16.14 16.14 0 0 1 7.934 1.934 14.09 14.09 0 0 1 5.495 5.383 15.36 15.36 0 0 1 1.991 7.822 15.36 15.36 0 0 1-1.991 7.822 14.29 14.29 0 0 1-5.495 5.411 15.95 15.95 0 0 1-7.934 1.962zm0-4.71a10.034 10.034 0 0 0 5.13-1.318 9.3 9.3 0 0 0 3.56-3.7 11.3 11.3 0 0 0 1.289-5.467 11.3 11.3 0 0 0-1.289-5.467 9.11 9.11 0 0 0-3.56-3.673 10.21 10.21 0 0 0-5.13-1.29 10.206 10.206 0 0 0-5.131 1.29 9.3 9.3 0 0 0-3.588 3.673 11.107 11.107 0 0 0-1.318 5.467 11.107 11.107 0 0 0 1.318 5.467 9.494 9.494 0 0 0 3.588 3.7 10.036 10.036 0 0 0 5.131 1.314z" fill="#82cd24"/></svg>