<svg xmlns="http://www.w3.org/2000/svg" viewBox="0 0 652 652" xmlns:v="https://vecta.io/nano"><path d="M161.6 309.8c2.8-13.1 4.5-16.3 19.8-16.3 14.5 0 16.5 1.1 13.3 16.3h-33.1zm28.5 21.3c-2.3 11-9.2 10.8-19.1 10.8-15.9 0-15.2-5-11.9-21H210c6.9-32.2 4.7-41.1-25.7-41.1-29.8 0-36.5 11.5-42.1 38-6.1 28.6-2.2 37.6 26.1 37.6 21.1 0 34.7-1.1 39.7-24.4h-17.9zm78.4 23.5h17.7L308.6 249h-17.7l-8.8 41.5h-.7c-1.9-9-10.9-10.7-20-10.7-25.3 0-31.2 13.9-35.9 35.6-4.8 22.7-7.7 40 19.8 40 10.4 0 19.1-2.2 25.6-12h.6l-3 11.2zm-4.7-61.2c15.3 0 16.1 6.3 12.8 22.1-3.7 17.6-4.9 26.4-23.1 26.4-16.2 0-13.7-9.7-10.1-26.4 3.9-18.6 8.1-22.1 20.4-22.1m78.9-44.3H325l-3.2 15.1h17.7l3.2-15.1zm-6.7 31.7h-17.8l-15.7 73.9h17.7l15.8-73.9zm54.3 45.7c-2.7 13-4.7 15.5-19.2 15.5-15.6 0-14.1-5.8-10.2-24.2 4-19 5.3-24.4 20.5-24.4 12.4 0 15.5 2 13.1 13.2h17.7c5-23.4-6-26.7-27.9-26.7-29 0-35.6 12-41.1 37.9-6.3 29.8-2.1 37.7 25.1 37.7 24.9 0 34.7-4.8 39.8-29h-17.8zm71.9-33.1c15.8 0 16.1 4.5 11.8 24.5-4.2 19.7-6.4 24.1-22.1 24.1-15.8 0-16.1-4.4-11.9-24.1 4.2-20 6.4-24.5 22.2-24.5m2.9-13.5c-30.8 0-36.7 9.2-42.8 37.9-6.1 28.6-4.1 37.7 26.7 37.7s36.7-9.1 42.8-37.7c6.1-28.7 4.1-37.9-26.7-37.9m47.4.9l-15.7 73.9h17.7l8.9-41.7c2.8-13.1 7-19.6 21.3-19.6 9.7 0 11.2 3.7 9.6 12.9L544 354.6h17.7l8.9-41.7c2.8-13.1 7-19.6 21.3-19.6 9.7 0 11.2 3.7 9.6 12.9l-10.3 48.3h17.7l10.6-50c3.9-18.2-1.1-24.8-20.2-24.8-9.9 0-20.6 2.8-26.1 13.1h-.6c.3-10.7-9.9-13.1-19.2-13.1s-19.7 2.1-25.7 11.5h-.5l2.3-10.7h-17z" fill="#777"/><path d="M113.8 224.8l-53.2 34.5-11-17.1-13.2 59.4 59.6 12-12.6-19.3 18.1-11.8 16.5 25.4 12.2-57.3z" fill="#bcceda"/><path d="M114.8 329.9l-59.6-12 12.6 19.3L49.7 349l-16.5-25.5L21 380.8l16.4 25.9 53.1-34.5 11.1 17.1zm44.8 68.4l-.3 1.3c-1.4 6.4-5.8 7.2-11.1 7.2-9.4 0-9.3-3.6-7.5-12.1 1.6-7.4 3.7-11.1 11.9-11.1 5.5 0 9.7.6 8.3 7l-.1.6h-3.4l.2-.7c.9-4.1-1.4-4.2-5.3-4.2-6 0-6.6 2.1-8.2 9.3-1.3 6.4-1.5 8.3 5.1 8.3 4.3 0 5.9-.5 6.8-4.6l.2-1.1h3.4zm11.4-3.1c-1.7 7.9-1.4 8.8 4.7 8.8s6.7-1 8.4-8.8c1.7-7.9 1.5-8.8-4.6-8.8-6.2 0-6.8.9-8.5 8.8m-3.5 0c2-9.6 4.1-11.6 12.5-11.6s9.6 2 7.6 11.6c-2 9.5-4.1 11.6-12.5 11.6s-9.7-2-7.6-11.6m34.4-11.3h-3.4l-4.8 22.7h3.4l2.8-13.2c1.1-5.2 2.7-6.9 8.3-6.9 3.8 0 5.3.7 4.4 4.8l-3.3 15.3h3.4l3.2-15.1c1.4-6.3-1-7.9-6.9-7.9-2.6 0-6 .3-7.6 3h-.1l.6-2.7zm28.3 0h-3.4l-4.8 22.7h3.4l2.8-13.2c1.1-5.2 2.7-6.9 8.3-6.9 3.8 0 5.3.7 4.4 4.8l-3.3 15.3h3.4l3.2-15.1c1.4-6.3-1-7.9-6.9-7.9-2.6 0-6 .3-7.6 3h-.1l.6-2.7zm38.4 9.3c1.2-6.4.5-6.8-4.7-6.8-6.2 0-6.7 1.6-8.1 6.8h12.8zm2.2 6.5l-.2.8c-1.3 6-6 6.3-11 6.3-8.9 0-9.6-2.9-7.7-11.6 2-9.4 4.5-11.6 12.7-11.6 7.3 0 9.3 1.7 7.5 10.1l-.5 2.3h-16.3c-1.5 7.2-1.2 8.1 4.9 8.1 4.7 0 6.2-.3 6.9-3.5l.2-.9h3.5zm24.2-1.4l-.2 1.1c-.9 4.1-2.5 4.6-6.8 4.6-6.6 0-6.5-1.9-5.1-8.3 1.5-7.3 2.1-9.3 8.2-9.3 3.9 0 6.2.1 5.3 4.2l-.1.7h3.4l.1-.6c1.4-6.4-2.8-7-8.3-7-8.2 0-10.3 3.8-11.9 11.1-1.8 8.4-1.9 12.1 7.5 12.1 5.4 0 9.8-.8 11.2-7.2l.3-1.3H295zm26.5-14.4h-8.8l1.2-5.5h-3.4l-1.2 5.5h-3l-.6 2.8h3l-2.8 13.3c-1.1 5.3-.2 6.8 5.1 6.8 4.7 0 7-2.1 7.9-6.6l.3-1.7H316l-.4 1.7c-.4 2.2-.8 3.9-4 3.9-2.5 0-3-.6-2.6-3l3.1-14.4h8.8l.6-2.8zm11.7-6h-3.4l.8-3.8h3.4l-.8 3.8zm-6.1 28.6h-3.4l4.8-22.7h3.4l-4.8 22.7zm17.4-22.6h-3.4l-4.8 22.7h3.4l2.8-13.2c1.1-5.2 2.7-6.9 8.2-6.9 3.8 0 5.3.7 4.4 4.8l-3.3 15.3h3.4l3.2-15.1c1.4-6.3-1.1-7.9-6.9-7.9-2.6 0-6 .3-7.6 3h-.1l.7-2.7zm38.4 25.3c-1.3 6-6.1 7.4-11.6 7.4-5.3 0-9.2-.8-7.5-7.4h3.4c-.9 4.4 1.1 4.6 4.7 4.6 4.1 0 6.6-.4 7.6-4.9l1.1-5.2h-.1c-1.5 2.8-5.3 3.1-8 3.1-7.3 0-8.1-3.8-6.5-11.6 1.6-7.6 3.6-11.6 11.4-11.6 3.1 0 5.9.4 6.6 3.2h.1l.6-2.8h3.4l-5.2 25.2zM374 404c6.6 0 7.4-3.8 8.4-8.8 1.4-6.3 1.5-8.8-4.7-8.8-6.3 0-6.8 2.9-8.1 8.8-1.1 5.5-2.2 8.8 4.4 8.8m43.5-29.8h3.4l-2.7 12.6h.1c1.7-2.9 5.3-3.2 8-3.2 7.8 0 7.9 4.5 6.4 11.6-1.6 7.4-3.5 11.6-11.3 11.6-3.1 0-5.9-.6-6.7-3l-.1.1-.6 2.7h-3.4l6.9-32.4zm11.6 21c1.6-7.4 1.1-8.8-4.4-8.8-6 0-6.9 2.4-8.2 8.8-1.6 7.3-.5 8.8 4.5 8.8 6 0 6.8-2.6 8.1-8.8m24.7 11.3h3.4l4.8-22.7h-3.4l-3 14c-1.1 5.4-3.8 6.2-8.6 6.2-4.4 0-4.3-1.9-3.5-5.6l3.1-14.5h-3.4l-3.1 14.5c-1.3 6 .3 8.4 6.3 8.4 3 0 6-.5 7.8-3.3h.1l-.5 3zm34.4-17.6c1.1-5.1-3.8-5.3-7.7-5.3-6.1 0-9.9.1-11.3 6.7-1.4 6.4 3.7 5.9 8.5 6.2 4.1.3 6-.5 5.1 3.7-.9 4-4.3 3.5-6.7 3.5-5.2 0-6.4-.5-5.9-2.6l.4-1.8h-3.5l-.4 2.1c-1.1 5.1 4 5.3 8.9 5.3 5.1 0 9.5-.3 10.9-6.7 1.6-7.4-3.9-6.5-9.7-6.8-3.5-.2-4.7.1-3.8-3.9.6-2.8 2.7-2.8 6.9-2.8 3.6 0 5.3 0 4.8 2.3l-.2.9h3.6l.1-.8zm14.2-11H499l.8-3.8h3.4l-.8 3.8zm-6.1 28.6h-3.4l4.8-22.7h3.4l-4.8 22.7zm17.4-22.6h-3.4l-4.8 22.7h3.4l2.8-13.2c1.1-5.2 2.7-6.9 8.2-6.9 3.8 0 5.3.7 4.4 4.8l-3.3 15.3h3.4l3.2-15.1c1.4-6.3-1.1-7.9-6.9-7.9-2.6 0-6 .3-7.6 3h-.1l.7-2.7zm38.5 9.3c1.2-6.4.5-6.8-4.7-6.8-6.2 0-6.7 1.6-8.1 6.8h12.8zm2.1 6.5l-.2.8c-1.3 6-6 6.3-11 6.3-8.8 0-9.6-2.9-7.7-11.6 2-9.4 4.5-11.6 12.7-11.6 7.3 0 9.3 1.7 7.5 10.1l-.5 2.3h-16.3c-1.5 7.2-1.2 8.1 4.9 8.1 4.7 0 6.2-.3 6.9-3.5l.2-.9h3.5zm28.8-10.8c1.1-5.1-3.8-5.3-7.7-5.3-6.1 0-9.9.1-11.3 6.7-1.4 6.4 3.7 5.9 8.6 6.2 4.1.3 6-.5 5.1 3.7-.9 4-4.3 3.5-6.7 3.5-5.2 0-6.4-.5-6-2.6l.4-1.8H562l-.5 2.1c-1.1 5.1 4 5.3 8.9 5.3 5.1 0 9.5-.3 10.9-6.7 1.6-7.4-3.9-6.5-9.7-6.8-3.5-.2-4.7.1-3.8-3.9.6-2.8 2.7-2.8 6.9-2.8 3.6 0 5.3 0 4.8 2.3l-.2.9h3.5l.3-.8zm26.4 0c1.1-5.1-3.7-5.3-7.7-5.3-6.1 0-9.9.1-11.3 6.7-1.4 6.4 3.7 5.9 8.6 6.2 4.1.3 6-.5 5.1 3.7-.9 4-4.3 3.5-6.7 3.5-5.2 0-6.4-.5-6-2.6l.4-1.8h-3.5l-.4 2.1c-1.1 5.1 4 5.3 8.9 5.3 5.1 0 9.5-.3 10.9-6.7 1.6-7.4-3.9-6.5-9.7-6.8-3.5-.2-4.7.1-3.8-3.9.6-2.8 2.7-2.8 7-2.8 3.6 0 5.3 0 4.8 2.3l-.2.9h3.5l.1-.8z" fill="#5086a2"/></svg>