<svg xmlns="http://www.w3.org/2000/svg" viewBox="0 0 1434.66 377.66"><g fill="#ff6e00"><path d="m272.34 300.89 28.62-28.46-28.62 28.46zm44-44.63 29.35-29.33 17.43-17.05 63.66-63.62c-8.3-15.56-8.18-31.75-.25-46.8l-70.09-69.92c-15.31 8-31.35 7.72-46.58-.11l-64.19 63.75-18 17.31c-.38.35-1.76 1.5-3 2.77l-90.45 90.55c-.92.92-1.79 1.9-2.77 2.75-2.72 2.33-4.32 2.52-6.84.24-3.3-3-6.45-6.17-9.48-9.44-2.24-2.43-2.14-4.37-.08-6.9.71-.86 1.55-1.6 2.34-2.39l183-183.24.39-.4c5.75-5.7 6.23-5.68 11.76.32 11.29 12.26 29.62 12.21 41-.13 5.6-6.08 6-6.11 11.71-.39l86 85.87 1.19 1.18c4.32 4.46 4.18 6.08-.8 9.53-16.61 11.48-16.34 32.7.55 44.11 4.41 3 4.67 5 1.12 8.85-.75.82-1.57 1.59-2.35 2.37l-216.9 216.75c-6.38 6.38-6.8 6.37-13.24-.06L31.97 184.05A106.39 106.39 0 0 1 1.1 122.44C-6.26 71.49 24.04 21.59 73.16 5.96c41.21-13.09 78.11-4.27 109.78 25.32 8.41 7.86 16.47 16.11 24.66 24.21 4.09 4 4.11 5.71.24 9.72q-3.3 3.41-6.7 6.7c-4.2 4.07-5.58 4.11-9.72.07l-25-24.61C122.97 4.91 49.81 20.7 28.8 77.67c-12.15 32.95-5.34 63.14 19 88.53 21.58 22.55 44 44.25 66.12 66.31q54.52 54.54 109.09 109.18a36.59 36.59 0 0 1 3.61 5.11l29.32-29.35m71.22-109.81-28.55-28.59a4 4 0 0 1 0-5.64l10.46-10.46a4 4 0 0 1 5.64 0l28.56 28.59a4 4 0 0 1 0 5.64l-10.46 10.46a4 4 0 0 1-5.64 0z"/><path d="m276.7 157.18-28.55-28.55a4 4 0 0 1 0-5.64l10.46-10.46a4 4 0 0 1 5.63 0l28.55 28.52a4 4 0 0 1 0 5.64l-10.46 10.46a4 4 0 0 1-5.63 0z"/></g><path d="m239.73 358.16-11.88-11.82v-.81l-.4.41q-3.66-3.64-7.39-7.22-53.07-53.16-106.24-106.24L47.7 166.17c-24.29-25.39-31.1-55.58-19-88.53 21-57 94.17-72.75 137.62-30.3l25 24.61c4.14 4 5.52 4 9.72-.07q3.4-3.3 6.7-6.7c3.87-4 3.85-5.68-.24-9.72l-24.66-24.21C151.27 1.66 114.37-7.15 73.16 5.95 24.04 21.58-6.26 71.49 1.1 122.43a106.39 106.39 0 0 0 30.87 61.62L220.82 372.8c3.46 3.46 5.19 5 7 4.79 1.58.28 3.06-.69 5.42-3l6.7-6.71c3.87-4 3.85-5.67-.24-9.72zm329.48-179.01c-15.62 0-21.66-8.06-21.66-21V87.32c0-12.93 6-21.16 21.66-21.16h59.76v22h-56.91v23.51h53.39v22h-53.39v23.51h57.92v22zm83.58 0V81.61c0-11.25 8.23-17.8 17.46-17.8 7.39 0 13.26 2.68 17 8.9l44.65 76.56V66.16h23.17v97.54c0 11.25-8.22 17.63-17.12 17.63-7.22 0-13.43-2.51-17.12-8.73l-44.7-77.05v83.6zm210.69-90.32h-33.23v90.32h-24.52V88.83h-33.24V66.16h90.99v22.67zm17.61 90.32v-113h43.48c25.52 0 45.17 11.93 45.17 35.93 0 15.44-9.07 27.37-23.51 31.23 7.22 4 11.42 11.75 17.29 23.5l10.91 22.33h-26.52l-10.07-20.09c-5.21-10.42-10.08-16-22.84-16h-9.56l-.17 36.1zm24.51-90.32-.16 32.4h19.13c11.59 0 20-6 20-16.62 0-11.08-8.56-15.78-19.64-15.78zm111.49-6.71c3.85-12.26 13.93-18.14 24.5-18.14 10.75 0 20.82 5.88 24.68 18.14l29.89 97h-25l-6.54-23.16-45.84.16-6.54 23h-25l29.89-97zm8 52h33.18l-12.76-44.82c-.67-2.35-1.68-3.36-3.69-3.36-1.85 0-3 1-3.7 3.36l-12.93 44.82zm130.95 45.03h-41.64v-113h42.14c36.61 0 61 22.5 61 56.58 0 34.75-25.85 56.41-61.45 56.41zm.5-90.32h-17.62v68.33h17.12c21.16 0 36.26-13.26 36.26-34.42 0-20.32-14.43-33.91-35.76-33.91zm100.35-6.71c3.86-12.26 13.94-18.14 24.51-18.14 10.75 0 20.82 5.88 24.68 18.14l29.88 97h-25l-6.54-23.16-45.84.16-6.54 23h-25l29.88-97zm8.06 52h33.07l-12.75-44.79c-.67-2.35-1.68-3.36-3.69-3.36-1.84 0-3 1-3.69 3.36l-12.93 44.82zm82.75 22.53 20.48-10.24c3.69 8.23 11.58 12.42 23.34 12.42 10.57 0 18.63-4.36 18.63-12.42 0-9.4-8.9-10.91-20.65-12.92-17-2.86-40-8.9-40-34.42 0-19.81 17.8-34.92 41.13-34.92 18.64 0 34.76 8.56 42 24.68l-20.47 10.22c-3.69-7.22-11.07-12.26-22.49-12.26-9.24 0-15.61 4.36-15.61 11.25 0 9.07 9.4 11.41 21.65 13.6 16.79 2.85 39 8.9 39 34.58 0 20.32-19.14 35.09-43.14 35.09-20.32 0-36.6-8.56-43.82-24.68zm-786.73 48.6a13.23 13.23 0 0 1 25.29 0l13.33 43.52h-14.48l-2.38-8.72h-18.15l-2.46 8.74h-14.48l13.33-43.54zm7.13 22.14h11.11l-4.9-18c-.16-.54-.31-.76-.62-.76s-.46.22-.61.76l-5 18zm22.99 44.89h-14.64v38.69h-14.17v-38.69h-14.64v-13.03h43.45v13.03zm6.18 15.32v-28.35h14.18v28c0 8 3.06 11.27 9.34 11.27s9.43-3.3 9.43-11.27v-28h14.15v28.35c0 15.32-7.43 24.28-23.6 24.28s-23.52-9-23.52-24.28zm114.19-73.14c3.86-12.25 13.93-18.13 24.51-18.13 10.75 0 20.82 5.88 24.68 18.13l29.88 97h-25l-6.55-23.17-45.83.17-6.55 23h-25l29.88-97zm8.06 52h33.07l-12.76-44.83c-.67-2.35-1.67-3.36-3.69-3.36-1.85 0-3 1-3.69 3.36l-12.93 44.83zm109.03 22.37h52.72v22.67H825.7c-15.62 0-21.66-8.06-21.66-21v-92h24.51v90.32zm52.72-33.78c0-32.74 25.69-58.76 58.59-58.76 19.64 0 38.45 10.41 46.84 28l-20 11.25c-5.54-9.74-14.27-15.95-27.87-15.95-18.8 0-32.4 14.94-32.4 35.42s13.43 35.43 32.4 35.43c13.6 0 22.67-6.21 27.87-16l20 11.24c-8.39 17.63-27.2 28-46.84 28-32.9 0-58.59-26-58.59-58.76zm138.49-40.59c3.86-12.25 13.94-18.13 24.51-18.13 10.75 0 20.82 5.88 24.68 18.13l29.88 97h-25l-6.56-23.13-45.84.17-6.55 23h-25l29.88-97zm8.06 52h33.07l-12.76-44.83c-.67-2.35-1.68-3.36-3.69-3.36-1.85 0-3 1-3.69 3.36l-12.93 44.83zm84.54 45.04v-97.54c0-11.25 8.23-17.8 17.46-17.8 7.39 0 13.26 2.69 17 8.9l44.65 76.56v-83.11h23.17v97.54c0 11.25-8.22 17.63-17.12 17.63-7.22 0-13.43-2.51-17.13-8.73l-44.65-77v83.6zm117.61-56.45c0-32.74 25.69-58.76 58.59-58.76 19.64 0 38.45 10.41 46.84 28l-20 11.25c-5.54-9.74-14.27-15.95-27.86-15.95-18.81 0-32.41 14.94-32.41 35.42s13.43 35.43 32.41 35.43c13.59 0 22.66-6.21 27.86-16l20 11.24c-8.39 17.63-27.2 28-46.84 28-32.9 0-58.59-26-58.59-58.76zm141.36 56.45c-15.61 0-21.66-8.06-21.66-21v-70.83c0-12.93 6-21.16 21.66-21.16h59.77v22h-56.91v23.54h53.38v22h-53.38v23.51h57.92v22z" fill="#e81f54"/></svg>